<?xml version="1.0" encoding="UTF-8" standalone="no"?>
<!DOCTYPE svg PUBLIC "-//W3C//DTD SVG 1.1//EN" "http://www.w3.org/Graphics/SVG/1.1/DTD/svg11.dtd">
<svg xmlns="http://www.w3.org/2000/svg" version="1.1" viewBox="0.00 0.00 1447.00 1448.00">
<g stroke-width="2.00" fill="none" stroke-linecap="butt">
<path stroke="#afefef" vector-effect="non-scaling-stroke" d="
  M 236.10 1427.33
  Q 283.02 1438.13 326.12 1441.83
  Q 335.74 1442.65 345.82 1443.09
  C 363.03 1443.85 380.89 1444.90 398.25 1445.16
  Q 452.29 1445.98 506.00 1445.60
  Q 554.03 1445.25 593.00 1445.15
  Q 758.62 1444.74 958.75 1445.18
  Q 1003.58 1445.27 1047.25 1444.82
  Q 1057.21 1444.71 1067.39 1444.31
  C 1086.13 1443.57 1105.66 1443.21 1124.68 1441.67
  Q 1153.25 1439.34 1181.77 1434.78
  Q 1210.23 1430.22 1234.19 1422.81
  C 1259.15 1415.09 1284.39 1402.29 1306.90 1387.47
  Q 1315.87 1381.57 1323.71 1375.14
  Q 1347.02 1356.05 1363.62 1337.31
  C 1382.94 1315.48 1399.13 1290.00 1411.81 1263.45
  Q 1420.93 1244.34 1426.76 1222.54
  Q 1431.47 1204.93 1434.83 1186.03
  Q 1442.14 1144.91 1443.58 1102.25
  Q 1445.00 1060.58 1444.94 1035.75
  C 1444.60 894.64 1444.95 753.08 1444.95 611.74
  Q 1444.95 602.51 1444.88 591.76
  Q 1444.42 523.89 1444.70 445.25
  Q 1444.82 409.99 1443.86 372.13
  Q 1442.71 326.57 1437.93 287.47
  C 1435.30 265.97 1431.67 245.50 1426.07 224.02
  Q 1419.90 200.39 1409.17 178.95
  Q 1389.56 139.78 1360.58 107.73
  C 1342.83 88.08 1323.29 70.70 1301.18 57.11
  Q 1295.37 53.54 1289.15 49.88
  Q 1260.61 33.06 1227.91 23.39
  Q 1209.99 18.09 1188.15 14.18
  Q 1145.44 6.53 1105.76 4.84
  Q 1073.60 3.46 1039.50 3.34
  Q 982.00 3.12 857.50 3.45
  Q 847.25 3.48 837.49 3.46
  Q 647.87 3.18 453.75 3.29
  C 418.91 3.31 384.45 3.25 351.98 4.40
  Q 319.14 5.56 284.41 10.46
  Q 275.37 11.74 264.66 13.75
  Q 241.95 17.99 235.75 19.78
  Q 226.88 22.33 217.66 24.98
  Q 177.37 36.53 143.86 60.11
  Q 119.11 77.52 99.12 96.57
  Q 85.11 109.91 74.54 123.88
  Q 68.22 132.23 61.95 141.44
  Q 32.95 184.04 20.74 234.57
  Q 11.75 271.74 8.96 305.45
  C 6.62 333.77 4.98 363.95 4.69 394.02
  C 4.44 418.53 4.03 442.88 4.07 467.26
  C 4.41 655.08 3.82 842.29 4.01 1029.75
  Q 4.06 1082.50 7.88 1130.23
  Q 11.54 1176.14 21.32 1216.19
  Q 33.19 1264.84 62.49 1307.19
  C 76.90 1328.02 92.67 1346.90 111.44 1363.23
  Q 121.38 1371.88 129.94 1378.26
  C 161.06 1401.47 197.38 1418.42 236.10 1427.33"
/>
<path stroke="#afefef" vector-effect="non-scaling-stroke" d="
  M 360.25 1023.25
  C 355.39 1017.23 350.11 1011.21 345.75 1005.28
  C 339.93 997.38 333.80 989.51 328.65 981.71
  Q 313.14 958.19 303.20 939.40
  Q 291.08 916.47 278.20 883.80
  Q 274.70 874.93 271.49 864.97
  Q 247.99 792.05 248.24 714.92
  Q 248.35 682.28 253.12 650.96
  Q 262.39 590.03 285.59 532.54
  C 291.83 517.07 299.80 501.81 307.62 487.63
  Q 330.62 445.93 363.35 407.42
  C 376.38 392.08 390.95 377.72 405.82 364.33
  C 419.47 352.01 433.34 341.94 447.88 331.28
  C 458.80 323.28 470.24 316.21 481.72 309.18
  Q 500.31 297.78 527.66 285.65
  Q 576.35 264.06 623.07 254.52
  C 639.50 251.17 654.60 248.48 670.23 246.64
  A 1.04 1.03 -5.3 0 0 671.14 245.55
  Q 670.81 239.93 670.79 235.25
  Q 670.61 194.83 669.34 158.77
  Q 669.30 157.42 669.21 155.98
  A 1.45 1.45 0.0 0 0 667.60 154.62
  Q 633.06 158.31 598.22 165.95
  Q 568.63 172.44 537.95 183.22
  Q 497.30 197.51 464.98 214.50
  Q 421.25 237.49 382.24 266.55
  Q 356.25 285.91 327.82 313.11
  Q 320.41 320.19 313.35 327.86
  Q 291.26 351.84 277.48 369.59
  Q 264.09 386.85 249.85 407.83
  C 245.16 414.74 240.86 422.05 236.46 429.27
  Q 231.41 437.56 226.89 445.97
  Q 200.02 495.91 182.06 552.42
  Q 174.90 574.98 169.71 599.54
  C 157.25 658.52 153.51 718.95 160.16 777.68
  Q 162.99 802.62 166.73 823.06
  Q 172.29 853.44 182.40 886.97
  Q 185.30 896.56 188.80 906.14
  Q 209.52 962.71 237.49 1008.64
  Q 250.44 1029.88 266.96 1053.05
  Q 272.52 1060.84 279.09 1068.86
  Q 292.40 1085.08 302.63 1096.85
  C 321.91 1119.05 346.74 1140.55 370.36 1160.74
  Q 380.34 1169.28 389.94 1176.04
  Q 434.11 1207.16 485.27 1231.43
  Q 494.85 1235.98 504.81 1240.05
  Q 531.01 1250.76 553.50 1257.44
  C 578.90 1264.98 600.51 1270.62 623.03 1274.61
  Q 645.70 1278.63 666.77 1281.76
  Q 668.82 1282.06 670.81 1282.12
  A 0.89 0.89 0.0 0 0 671.71 1281.13
  Q 671.12 1276.00 671.07 1270.56
  Q 670.69 1229.72 670.27 1192.27
  Q 670.25 1190.43 668.46 1190.03
  C 659.17 1187.94 649.81 1185.81 640.16 1183.85
  Q 598.44 1175.41 568.81 1165.61
  Q 514.65 1147.70 462.07 1114.16
  C 446.08 1103.96 430.71 1091.90 416.57 1080.14
  Q 396.42 1063.38 378.63 1044.12
  C 372.30 1037.27 366.07 1030.45 360.25 1023.25"
/>
<path stroke="#96eaee" vector-effect="non-scaling-stroke" d="
  M 798.23 158.06
  C 791.24 157.08 784.20 155.89 776.78 154.81
  A 1.45 1.44 -84.6 0 0 775.13 156.18
  C 774.46 172.06 774.75 188.23 774.50 204.25
  Q 774.18 224.70 774.19 244.24
  A 1.17 1.16 -86.1 0 0 775.19 245.40
  Q 847.33 255.38 914.49 284.09
  Q 923.41 287.91 932.77 292.60
  Q 975.26 313.90 1008.69 339.19
  Q 1056.08 375.03 1096.24 425.22
  Q 1102.14 432.58 1108.94 442.23
  Q 1129.14 470.86 1144.22 499.31
  Q 1157.29 523.96 1168.16 554.29
  Q 1184.63 600.23 1191.38 649.52
  Q 1195.81 681.85 1196.00 690.50
  Q 1196.27 702.88 1196.57 715.88
  Q 1197.72 765.06 1187.68 812.32
  Q 1178.76 854.36 1163.60 893.62
  Q 1155.72 914.05 1145.68 933.06
  Q 1129.14 964.39 1108.49 993.43
  C 1098.37 1007.66 1086.60 1021.85 1075.46 1034.23
  Q 1052.94 1059.25 1024.78 1083.51
  Q 1006.95 1098.88 979.95 1116.47
  Q 942.32 1140.98 902.61 1156.77
  Q 874.06 1168.13 844.55 1175.49
  Q 811.44 1183.76 776.01 1189.82
  A 1.63 1.63 0.0 0 0 774.66 1191.44
  Q 774.80 1217.56 774.49 1243.42
  C 774.34 1254.83 774.70 1268.00 774.14 1280.41
  Q 774.11 1281.15 774.84 1281.19
  Q 776.72 1281.30 778.52 1281.04
  Q 796.58 1278.45 814.26 1275.57
  Q 922.65 1257.88 1015.76 1200.84
  C 1041.65 1184.98 1066.28 1166.70 1090.30 1146.81
  C 1124.55 1118.46 1154.00 1085.53 1179.62 1049.58
  Q 1191.92 1032.33 1197.92 1022.81
  Q 1210.88 1002.24 1223.92 978.18
  Q 1242.12 944.62 1257.09 901.32
  Q 1262.86 884.62 1266.23 872.66
  Q 1272.95 848.82 1277.98 823.43
  C 1280.79 809.25 1282.77 795.33 1284.52 780.65
  Q 1291.16 725.20 1285.24 667.87
  Q 1283.56 651.65 1281.36 635.63
  Q 1277.46 607.33 1270.34 577.73
  C 1267.01 563.87 1262.54 549.53 1258.03 535.78
  Q 1245.30 497.00 1226.48 460.12
  C 1220.05 447.54 1212.72 435.49 1205.39 423.19
  Q 1196.45 408.17 1178.84 383.63
  C 1174.42 377.48 1169.43 371.53 1164.85 365.48
  Q 1159.55 358.49 1153.96 352.29
  C 1146.00 343.45 1138.22 334.19 1129.95 325.97
  C 1117.36 313.45 1103.76 300.99 1090.97 289.43
  C 1086.84 285.70 1082.27 282.38 1077.92 278.73
  Q 1073.04 274.64 1067.60 270.49
  Q 1016.53 231.61 956.15 202.73
  C 938.76 194.42 920.46 187.31 902.38 181.09
  Q 875.96 172.00 847.01 166.05
  C 843.30 165.28 839.54 164.88 835.81 164.04
  Q 831.67 163.10 827.37 162.42
  Q 812.68 160.10 798.23 158.06"
/>
<path stroke="#afefef" vector-effect="non-scaling-stroke" d="
  M 501.17 606.12
  Q 523.52 609.49 544.50 600.24
  C 574.23 587.13 594.14 564.36 600.55 532.07
  Q 603.41 517.67 600.10 500.98
  C 595.96 480.07 586.49 460.42 569.95 447.38
  C 554.63 435.30 535.30 426.55 515.94 425.80
  C 501.37 425.23 487.66 427.37 474.08 433.60
  Q 452.79 443.36 438.64 463.51
  Q 422.92 485.89 421.48 510.96
  C 420.85 521.93 421.32 531.83 424.63 542.05
  Q 427.12 549.72 430.72 557.18
  Q 436.78 569.76 446.45 579.56
  Q 452.65 585.83 461.85 591.26
  C 474.39 598.66 487.51 604.06 501.17 606.12"
/>
<path stroke="#96eaee" vector-effect="non-scaling-stroke" d="
  M 1022.23 505.19
  C 1017.46 469.45 993.58 441.12 958.89 430.23
  C 919.36 417.81 878.17 434.39 856.07 469.32
  Q 843.53 489.14 841.61 515.06
  Q 841.16 521.16 842.29 527.76
  C 846.03 549.58 857.20 570.67 873.95 584.99
  C 884.94 594.40 899.84 601.03 914.06 604.29
  Q 938.94 609.99 961.26 601.53
  C 974.64 596.45 987.38 589.94 997.03 579.54
  C 1016.27 558.80 1025.93 532.97 1022.23 505.19"
/>
<path stroke="#96eaee" vector-effect="non-scaling-stroke" d="
  M 721.21 639.71
  Q 722.90 640.81 723.61 641.65
  Q 735.15 655.31 747.31 667.61
  C 778.91 699.57 817.84 721.56 859.41 738.19
  Q 863.69 739.90 867.73 741.09
  A 2.22 2.21 8.8 0 1 869.32 743.25
  Q 869.06 757.05 869.15 773.87
  Q 869.16 776.49 868.06 777.32
  Q 865.04 779.57 862.38 781.42
  Q 816.51 813.19 782.03 837.16
  Q 774.10 842.68 766.75 846.89
  A 1.79 1.79 0.0 0 0 766.20 849.51
  C 769.87 854.43 772.78 859.87 776.09 864.67
  C 794.36 891.23 811.87 917.23 830.13 944.61
  Q 831.71 946.98 834.75 947.22
  Q 839.77 947.63 844.51 947.70
  Q 898.72 948.53 947.80 946.95
  A 0.57 0.57 0.0 0 0 948.32 946.19
  C 947.75 944.53 947.16 942.84 946.26 941.35
  Q 933.34 920.21 921.72 903.80
  Q 911.62 889.54 902.08 874.64
  A 1.95 1.95 0.0 0 1 902.96 871.80
  C 908.71 869.36 913.67 866.76 917.68 861.81
  C 918.65 860.61 920.60 859.44 921.76 861.21
  Q 926.80 868.87 931.24 875.34
  Q 957.64 913.81 979.16 946.09
  C 979.82 947.09 980.89 947.43 982.01 947.47
  C 1020.24 948.59 1059.05 947.95 1096.33 947.23
  A 1.23 1.22 86.9 0 0 1097.52 945.90
  Q 1097.45 945.06 1096.95 944.26
  Q 1093.54 938.73 1089.80 933.19
  Q 1062.07 892.09 1036.97 855.52
  Q 1023.04 835.23 1008.70 814.25
  Q 1005.76 809.94 1003.11 805.13
  Q 1001.25 801.75 1000.83 799.17
  Q 999.95 793.66 999.96 785.25
  Q 1000.01 749.13 999.86 713.50
  C 999.76 689.70 999.09 665.38 998.94 643.07
  A 1.92 1.92 0.0 0 0 996.76 641.19
  Q 978.29 643.76 958.82 644.65
  Q 938.57 645.57 917.05 640.63
  Q 885.99 633.48 857.48 616.99
  Q 851.45 613.50 845.61 609.05
  Q 816.77 587.07 797.45 556.04
  Q 793.03 548.94 783.23 530.26
  Q 782.61 529.08 780.38 526.37"
/>
<path stroke="#afefef" vector-effect="non-scaling-stroke" d="
  M 780.38 526.37
  C 779.81 524.92 779.25 524.07 777.54 524.06
  Q 772.10 524.02 766.50 523.95
  Q 728.67 523.46 690.26 523.45
  Q 677.26 523.45 663.97 523.96
  A 1.90 1.90 0.0 0 0 662.26 525.20
  C 660.74 529.26 659.20 533.35 657.21 537.23
  Q 647.39 556.37 636.96 570.38
  C 622.24 590.14 602.37 607.59 580.05 619.90
  Q 569.49 625.72 560.55 629.51
  Q 531.98 641.64 495.00 644.74
  Q 485.13 645.57 475.94 644.59
  Q 462.28 643.14 448.19 640.66
  Q 445.81 640.24 445.77 642.65
  C 445.47 657.87 445.31 673.24 444.82 688.99
  C 443.76 723.67 443.95 759.15 443.98 793.00
  Q 443.98 798.78 442.91 800.75
  Q 435.44 814.42 426.36 827.60
  Q 408.65 853.32 391.70 878.86
  Q 385.81 887.72 380.47 895.39
  C 369.57 911.04 357.87 927.18 348.69 943.20
  Q 348.01 944.39 347.46 945.68
  A 1.08 1.08 0.0 0 0 348.40 947.18
  Q 362.20 947.81 377.25 947.81
  Q 416.93 947.81 456.99 947.78
  Q 459.31 947.77 461.66 947.72
  A 2.95 2.93 -77.5 0 0 464.26 946.05
  Q 465.65 943.20 467.21 940.96
  Q 486.23 913.62 505.50 884.78
  Q 512.59 874.16 521.37 860.46
  A 1.04 1.04 0.0 0 1 522.91 860.23
  C 528.65 865.12 534.22 869.48 541.40 872.02
  A 1.42 1.41 24.6 0 1 542.16 874.05
  Q 535.01 886.68 528.52 895.99
  Q 514.47 916.12 500.96 936.66
  Q 498.31 940.68 495.66 945.74
  A 0.78 0.78 0.0 0 0 496.31 946.88
  Q 512.06 947.65 527.13 947.67
  Q 565.69 947.71 604.50 947.66
  Q 607.86 947.66 610.90 947.05
  Q 611.40 946.95 611.71 946.55
  Q 613.34 944.46 615.00 942.04
  Q 643.86 900.09 668.54 863.27
  Q 673.37 856.07 677.34 850.83
  A 2.34 2.33 32.9 0 0 676.60 847.38
  C 674.36 846.15 671.97 844.86 669.88 843.35
  Q 636.48 819.20 601.86 796.26
  C 593.57 790.77 585.85 784.72 577.83 779.18
  C 574.17 776.64 574.65 773.75 574.52 769.86
  Q 574.06 756.45 574.54 743.18
  Q 574.59 741.79 575.91 741.37
  Q 596.67 734.72 614.42 725.61
  Q 626.03 719.65 635.18 714.53
  Q 657.65 701.95 679.44 683.92
  Q 700.08 666.84 716.53 645.71
  Q 716.80 645.36 719.03 642.85
  Q 720.35 641.36 721.21 639.71"
/>
<path stroke="#e6fafe" vector-effect="non-scaling-stroke" d="
  M 780.38 526.37
  C 775.37 534.51 772.88 540.85 769.38 550.51
  C 762.59 569.20 753.81 587.36 744.27 604.80
  Q 734.17 623.27 721.21 639.71"
/>
</g>
<path fill="#ffffff" d="
  M 0.00 0.00
  L 1447.00 0.00
  L 1447.00 1448.00
  L 0.00 1448.00
  L 0.00 0.00
  Z
  M 236.10 1427.33
  Q 283.02 1438.13 326.12 1441.83
  Q 335.74 1442.65 345.82 1443.09
  C 363.03 1443.85 380.89 1444.90 398.25 1445.16
  Q 452.29 1445.98 506.00 1445.60
  Q 554.03 1445.25 593.00 1445.15
  Q 758.62 1444.74 958.75 1445.18
  Q 1003.58 1445.27 1047.25 1444.82
  Q 1057.21 1444.71 1067.39 1444.31
  C 1086.13 1443.57 1105.66 1443.21 1124.68 1441.67
  Q 1153.25 1439.34 1181.77 1434.78
  Q 1210.23 1430.22 1234.19 1422.81
  C 1259.15 1415.09 1284.39 1402.29 1306.90 1387.47
  Q 1315.87 1381.57 1323.71 1375.14
  Q 1347.02 1356.05 1363.62 1337.31
  C 1382.94 1315.48 1399.13 1290.00 1411.81 1263.45
  Q 1420.93 1244.34 1426.76 1222.54
  Q 1431.47 1204.93 1434.83 1186.03
  Q 1442.14 1144.91 1443.58 1102.25
  Q 1445.00 1060.58 1444.94 1035.75
  C 1444.60 894.64 1444.95 753.08 1444.95 611.74
  Q 1444.95 602.51 1444.88 591.76
  Q 1444.42 523.89 1444.70 445.25
  Q 1444.82 409.99 1443.86 372.13
  Q 1442.71 326.57 1437.93 287.47
  C 1435.30 265.97 1431.67 245.50 1426.07 224.02
  Q 1419.90 200.39 1409.17 178.95
  Q 1389.56 139.78 1360.58 107.73
  C 1342.83 88.08 1323.29 70.70 1301.18 57.11
  Q 1295.37 53.54 1289.15 49.88
  Q 1260.61 33.06 1227.91 23.39
  Q 1209.99 18.09 1188.15 14.18
  Q 1145.44 6.53 1105.76 4.84
  Q 1073.60 3.46 1039.50 3.34
  Q 982.00 3.12 857.50 3.45
  Q 847.25 3.48 837.49 3.46
  Q 647.87 3.18 453.75 3.29
  C 418.91 3.31 384.45 3.25 351.98 4.40
  Q 319.14 5.56 284.41 10.46
  Q 275.37 11.74 264.66 13.75
  Q 241.95 17.99 235.75 19.78
  Q 226.88 22.33 217.66 24.98
  Q 177.37 36.53 143.86 60.11
  Q 119.11 77.52 99.12 96.57
  Q 85.11 109.91 74.54 123.88
  Q 68.22 132.23 61.95 141.44
  Q 32.95 184.04 20.74 234.57
  Q 11.75 271.74 8.96 305.45
  C 6.62 333.77 4.98 363.95 4.69 394.02
  C 4.44 418.53 4.03 442.88 4.07 467.26
  C 4.41 655.08 3.82 842.29 4.01 1029.75
  Q 4.06 1082.50 7.88 1130.23
  Q 11.54 1176.14 21.32 1216.19
  Q 33.19 1264.84 62.49 1307.19
  C 76.90 1328.02 92.67 1346.90 111.44 1363.23
  Q 121.38 1371.88 129.94 1378.26
  C 161.06 1401.47 197.38 1418.42 236.10 1427.33
  Z"
/>
<path fill="#5fdede" d="
  M 236.10 1427.33
  C 197.38 1418.42 161.06 1401.47 129.94 1378.26
  Q 121.38 1371.88 111.44 1363.23
  C 92.67 1346.90 76.90 1328.02 62.49 1307.19
  Q 33.19 1264.84 21.32 1216.19
  Q 11.54 1176.14 7.88 1130.23
  Q 4.06 1082.50 4.01 1029.75
  C 3.82 842.29 4.41 655.08 4.07 467.26
  C 4.03 442.88 4.44 418.53 4.69 394.02
  C 4.98 363.95 6.62 333.77 8.96 305.45
  Q 11.75 271.74 20.74 234.57
  Q 32.95 184.04 61.95 141.44
  Q 68.22 132.23 74.54 123.88
  Q 85.11 109.91 99.12 96.57
  Q 119.11 77.52 143.86 60.11
  Q 177.37 36.53 217.66 24.98
  Q 226.88 22.33 235.75 19.78
  Q 241.95 17.99 264.66 13.75
  Q 275.37 11.74 284.41 10.46
  Q 319.14 5.56 351.98 4.40
  C 384.45 3.25 418.91 3.31 453.75 3.29
  Q 647.87 3.18 837.49 3.46
  Q 847.25 3.48 857.50 3.45
  Q 982.00 3.12 1039.50 3.34
  Q 1073.60 3.46 1105.76 4.84
  Q 1145.44 6.53 1188.15 14.18
  Q 1209.99 18.09 1227.91 23.39
  Q 1260.61 33.06 1289.15 49.88
  Q 1295.37 53.54 1301.18 57.11
  C 1323.29 70.70 1342.83 88.08 1360.58 107.73
  Q 1389.56 139.78 1409.17 178.95
  Q 1419.90 200.39 1426.07 224.02
  C 1431.67 245.50 1435.30 265.97 1437.93 287.47
  Q 1442.71 326.57 1443.86 372.13
  Q 1444.82 409.99 1444.70 445.25
  Q 1444.42 523.89 1444.88 591.76
  Q 1444.95 602.51 1444.95 611.74
  C 1444.95 753.08 1444.60 894.64 1444.94 1035.75
  Q 1445.00 1060.58 1443.58 1102.25
  Q 1442.14 1144.91 1434.83 1186.03
  Q 1431.47 1204.93 1426.76 1222.54
  Q 1420.93 1244.34 1411.81 1263.45
  C 1399.13 1290.00 1382.94 1315.48 1363.62 1337.31
  Q 1347.02 1356.05 1323.71 1375.14
  Q 1315.87 1381.57 1306.90 1387.47
  C 1284.39 1402.29 1259.15 1415.09 1234.19 1422.81
  Q 1210.23 1430.22 1181.77 1434.78
  Q 1153.25 1439.34 1124.68 1441.67
  C 1105.66 1443.21 1086.13 1443.57 1067.39 1444.31
  Q 1057.21 1444.71 1047.25 1444.82
  Q 1003.58 1445.27 958.75 1445.18
  Q 758.62 1444.74 593.00 1445.15
  Q 554.03 1445.25 506.00 1445.60
  Q 452.29 1445.98 398.25 1445.16
  C 380.89 1444.90 363.03 1443.85 345.82 1443.09
  Q 335.74 1442.65 326.12 1441.83
  Q 283.02 1438.13 236.10 1427.33
  Z
  M 360.25 1023.25
  C 355.39 1017.23 350.11 1011.21 345.75 1005.28
  C 339.93 997.38 333.80 989.51 328.65 981.71
  Q 313.14 958.19 303.20 939.40
  Q 291.08 916.47 278.20 883.80
  Q 274.70 874.93 271.49 864.97
  Q 247.99 792.05 248.24 714.92
  Q 248.35 682.28 253.12 650.96
  Q 262.39 590.03 285.59 532.54
  C 291.83 517.07 299.80 501.81 307.62 487.63
  Q 330.62 445.93 363.35 407.42
  C 376.38 392.08 390.95 377.72 405.82 364.33
  C 419.47 352.01 433.34 341.94 447.88 331.28
  C 458.80 323.28 470.24 316.21 481.72 309.18
  Q 500.31 297.78 527.66 285.65
  Q 576.35 264.06 623.07 254.52
  C 639.50 251.17 654.60 248.48 670.23 246.64
  A 1.04 1.03 -5.3 0 0 671.14 245.55
  Q 670.81 239.93 670.79 235.25
  Q 670.61 194.83 669.34 158.77
  Q 669.30 157.42 669.21 155.98
  A 1.45 1.45 0.0 0 0 667.60 154.62
  Q 633.06 158.31 598.22 165.95
  Q 568.63 172.44 537.95 183.22
  Q 497.30 197.51 464.98 214.50
  Q 421.25 237.49 382.24 266.55
  Q 356.25 285.91 327.82 313.11
  Q 320.41 320.19 313.35 327.86
  Q 291.26 351.84 277.48 369.59
  Q 264.09 386.85 249.85 407.83
  C 245.16 414.74 240.86 422.05 236.46 429.27
  Q 231.41 437.56 226.89 445.97
  Q 200.02 495.91 182.06 552.42
  Q 174.90 574.98 169.71 599.54
  C 157.25 658.52 153.51 718.95 160.16 777.68
  Q 162.99 802.62 166.73 823.06
  Q 172.29 853.44 182.40 886.97
  Q 185.30 896.56 188.80 906.14
  Q 209.52 962.71 237.49 1008.64
  Q 250.44 1029.88 266.96 1053.05
  Q 272.52 1060.84 279.09 1068.86
  Q 292.40 1085.08 302.63 1096.85
  C 321.91 1119.05 346.74 1140.55 370.36 1160.74
  Q 380.34 1169.28 389.94 1176.04
  Q 434.11 1207.16 485.27 1231.43
  Q 494.85 1235.98 504.81 1240.05
  Q 531.01 1250.76 553.50 1257.44
  C 578.90 1264.98 600.51 1270.62 623.03 1274.61
  Q 645.70 1278.63 666.77 1281.76
  Q 668.82 1282.06 670.81 1282.12
  A 0.89 0.89 0.0 0 0 671.71 1281.13
  Q 671.12 1276.00 671.07 1270.56
  Q 670.69 1229.72 670.27 1192.27
  Q 670.25 1190.43 668.46 1190.03
  C 659.17 1187.94 649.81 1185.81 640.16 1183.85
  Q 598.44 1175.41 568.81 1165.61
  Q 514.65 1147.70 462.07 1114.16
  C 446.08 1103.96 430.71 1091.90 416.57 1080.14
  Q 396.42 1063.38 378.63 1044.12
  C 372.30 1037.27 366.07 1030.45 360.25 1023.25
  Z
  M 798.23 158.06
  C 791.24 157.08 784.20 155.89 776.78 154.81
  A 1.45 1.44 -84.6 0 0 775.13 156.18
  C 774.46 172.06 774.75 188.23 774.50 204.25
  Q 774.18 224.70 774.19 244.24
  A 1.17 1.16 -86.1 0 0 775.19 245.40
  Q 847.33 255.38 914.49 284.09
  Q 923.41 287.91 932.77 292.60
  Q 975.26 313.90 1008.69 339.19
  Q 1056.08 375.03 1096.24 425.22
  Q 1102.14 432.58 1108.94 442.23
  Q 1129.14 470.86 1144.22 499.31
  Q 1157.29 523.96 1168.16 554.29
  Q 1184.63 600.23 1191.38 649.52
  Q 1195.81 681.85 1196.00 690.50
  Q 1196.27 702.88 1196.57 715.88
  Q 1197.72 765.06 1187.68 812.32
  Q 1178.76 854.36 1163.60 893.62
  Q 1155.72 914.05 1145.68 933.06
  Q 1129.14 964.39 1108.49 993.43
  C 1098.37 1007.66 1086.60 1021.85 1075.46 1034.23
  Q 1052.94 1059.25 1024.78 1083.51
  Q 1006.95 1098.88 979.95 1116.47
  Q 942.32 1140.98 902.61 1156.77
  Q 874.06 1168.13 844.55 1175.49
  Q 811.44 1183.76 776.01 1189.82
  A 1.63 1.63 0.0 0 0 774.66 1191.44
  Q 774.80 1217.56 774.49 1243.42
  C 774.34 1254.83 774.70 1268.00 774.14 1280.41
  Q 774.11 1281.15 774.84 1281.19
  Q 776.72 1281.30 778.52 1281.04
  Q 796.58 1278.45 814.26 1275.57
  Q 922.65 1257.88 1015.76 1200.84
  C 1041.65 1184.98 1066.28 1166.70 1090.30 1146.81
  C 1124.55 1118.46 1154.00 1085.53 1179.62 1049.58
  Q 1191.92 1032.33 1197.92 1022.81
  Q 1210.88 1002.24 1223.92 978.18
  Q 1242.12 944.62 1257.09 901.32
  Q 1262.86 884.62 1266.23 872.66
  Q 1272.95 848.82 1277.98 823.43
  C 1280.79 809.25 1282.77 795.33 1284.52 780.65
  Q 1291.16 725.20 1285.24 667.87
  Q 1283.56 651.65 1281.36 635.63
  Q 1277.46 607.33 1270.34 577.73
  C 1267.01 563.87 1262.54 549.53 1258.03 535.78
  Q 1245.30 497.00 1226.48 460.12
  C 1220.05 447.54 1212.72 435.49 1205.39 423.19
  Q 1196.45 408.17 1178.84 383.63
  C 1174.42 377.48 1169.43 371.53 1164.85 365.48
  Q 1159.55 358.49 1153.96 352.29
  C 1146.00 343.45 1138.22 334.19 1129.95 325.97
  C 1117.36 313.45 1103.76 300.99 1090.97 289.43
  C 1086.84 285.70 1082.27 282.38 1077.92 278.73
  Q 1073.04 274.64 1067.60 270.49
  Q 1016.53 231.61 956.15 202.73
  C 938.76 194.42 920.46 187.31 902.38 181.09
  Q 875.96 172.00 847.01 166.05
  C 843.30 165.28 839.54 164.88 835.81 164.04
  Q 831.67 163.10 827.37 162.42
  Q 812.68 160.10 798.23 158.06
  Z
  M 501.17 606.12
  Q 523.52 609.49 544.50 600.24
  C 574.23 587.13 594.14 564.36 600.55 532.07
  Q 603.41 517.67 600.10 500.98
  C 595.96 480.07 586.49 460.42 569.95 447.38
  C 554.63 435.30 535.30 426.55 515.94 425.80
  C 501.37 425.23 487.66 427.37 474.08 433.60
  Q 452.79 443.36 438.64 463.51
  Q 422.92 485.89 421.48 510.96
  C 420.85 521.93 421.32 531.83 424.63 542.05
  Q 427.12 549.72 430.72 557.18
  Q 436.78 569.76 446.45 579.56
  Q 452.65 585.83 461.85 591.26
  C 474.39 598.66 487.51 604.06 501.17 606.12
  Z
  M 1022.23 505.19
  C 1017.46 469.45 993.58 441.12 958.89 430.23
  C 919.36 417.81 878.17 434.39 856.07 469.32
  Q 843.53 489.14 841.61 515.06
  Q 841.16 521.16 842.29 527.76
  C 846.03 549.58 857.20 570.67 873.95 584.99
  C 884.94 594.40 899.84 601.03 914.06 604.29
  Q 938.94 609.99 961.26 601.53
  C 974.64 596.45 987.38 589.94 997.03 579.54
  C 1016.27 558.80 1025.93 532.97 1022.23 505.19
  Z
  M 721.21 639.71
  Q 722.90 640.81 723.61 641.65
  Q 735.15 655.31 747.31 667.61
  C 778.91 699.57 817.84 721.56 859.41 738.19
  Q 863.69 739.90 867.73 741.09
  A 2.22 2.21 8.8 0 1 869.32 743.25
  Q 869.06 757.05 869.15 773.87
  Q 869.16 776.49 868.06 777.32
  Q 865.04 779.57 862.38 781.42
  Q 816.51 813.19 782.03 837.16
  Q 774.10 842.68 766.75 846.89
  A 1.79 1.79 0.0 0 0 766.20 849.51
  C 769.87 854.43 772.78 859.87 776.09 864.67
  C 794.36 891.23 811.87 917.23 830.13 944.61
  Q 831.71 946.98 834.75 947.22
  Q 839.77 947.63 844.51 947.70
  Q 898.72 948.53 947.80 946.95
  A 0.57 0.57 0.0 0 0 948.32 946.19
  C 947.75 944.53 947.16 942.84 946.26 941.35
  Q 933.34 920.21 921.72 903.80
  Q 911.62 889.54 902.08 874.64
  A 1.95 1.95 0.0 0 1 902.96 871.80
  C 908.71 869.36 913.67 866.76 917.68 861.81
  C 918.65 860.61 920.60 859.44 921.76 861.21
  Q 926.80 868.87 931.24 875.34
  Q 957.64 913.81 979.16 946.09
  C 979.82 947.09 980.89 947.43 982.01 947.47
  C 1020.24 948.59 1059.05 947.95 1096.33 947.23
  A 1.23 1.22 86.9 0 0 1097.52 945.90
  Q 1097.45 945.06 1096.95 944.26
  Q 1093.54 938.73 1089.80 933.19
  Q 1062.07 892.09 1036.97 855.52
  Q 1023.04 835.23 1008.70 814.25
  Q 1005.76 809.94 1003.11 805.13
  Q 1001.25 801.75 1000.83 799.17
  Q 999.95 793.66 999.96 785.25
  Q 1000.01 749.13 999.86 713.50
  C 999.76 689.70 999.09 665.38 998.94 643.07
  A 1.92 1.92 0.0 0 0 996.76 641.19
  Q 978.29 643.76 958.82 644.65
  Q 938.57 645.57 917.05 640.63
  Q 885.99 633.48 857.48 616.99
  Q 851.45 613.50 845.61 609.05
  Q 816.77 587.07 797.45 556.04
  Q 793.03 548.94 783.23 530.26
  Q 782.61 529.08 780.38 526.37
  C 779.81 524.92 779.25 524.07 777.54 524.06
  Q 772.10 524.02 766.50 523.95
  Q 728.67 523.46 690.26 523.45
  Q 677.26 523.45 663.97 523.96
  A 1.90 1.90 0.0 0 0 662.26 525.20
  C 660.74 529.26 659.20 533.35 657.21 537.23
  Q 647.39 556.37 636.96 570.38
  C 622.24 590.14 602.37 607.59 580.05 619.90
  Q 569.49 625.72 560.55 629.51
  Q 531.98 641.64 495.00 644.74
  Q 485.13 645.57 475.94 644.59
  Q 462.28 643.14 448.19 640.66
  Q 445.81 640.24 445.77 642.65
  C 445.47 657.87 445.31 673.24 444.82 688.99
  C 443.76 723.67 443.95 759.15 443.98 793.00
  Q 443.98 798.78 442.91 800.75
  Q 435.44 814.42 426.36 827.60
  Q 408.65 853.32 391.70 878.86
  Q 385.81 887.72 380.47 895.39
  C 369.57 911.04 357.87 927.18 348.69 943.20
  Q 348.01 944.39 347.46 945.68
  A 1.08 1.08 0.0 0 0 348.40 947.18
  Q 362.20 947.81 377.25 947.81
  Q 416.93 947.81 456.99 947.78
  Q 459.31 947.77 461.66 947.72
  A 2.95 2.93 -77.5 0 0 464.26 946.05
  Q 465.65 943.20 467.21 940.96
  Q 486.23 913.62 505.50 884.78
  Q 512.59 874.16 521.37 860.46
  A 1.04 1.04 0.0 0 1 522.91 860.23
  C 528.65 865.12 534.22 869.48 541.40 872.02
  A 1.42 1.41 24.6 0 1 542.16 874.05
  Q 535.01 886.68 528.52 895.99
  Q 514.47 916.12 500.96 936.66
  Q 498.31 940.68 495.66 945.74
  A 0.78 0.78 0.0 0 0 496.31 946.88
  Q 512.06 947.65 527.13 947.67
  Q 565.69 947.71 604.50 947.66
  Q 607.86 947.66 610.90 947.05
  Q 611.40 946.95 611.71 946.55
  Q 613.34 944.46 615.00 942.04
  Q 643.86 900.09 668.54 863.27
  Q 673.37 856.07 677.34 850.83
  A 2.34 2.33 32.9 0 0 676.60 847.38
  C 674.36 846.15 671.97 844.86 669.88 843.35
  Q 636.48 819.20 601.86 796.26
  C 593.57 790.77 585.85 784.72 577.83 779.18
  C 574.17 776.64 574.65 773.75 574.52 769.86
  Q 574.06 756.45 574.54 743.18
  Q 574.59 741.79 575.91 741.37
  Q 596.67 734.72 614.42 725.61
  Q 626.03 719.65 635.18 714.53
  Q 657.65 701.95 679.44 683.92
  Q 700.08 666.84 716.53 645.71
  Q 716.80 645.36 719.03 642.85
  Q 720.35 641.36 721.21 639.71
  Z"
/>
<path fill="#ffffff" d="
  M 360.25 1023.25
  C 366.07 1030.45 372.30 1037.27 378.63 1044.12
  Q 396.42 1063.38 416.57 1080.14
  C 430.71 1091.90 446.08 1103.96 462.07 1114.16
  Q 514.65 1147.70 568.81 1165.61
  Q 598.44 1175.41 640.16 1183.85
  C 649.81 1185.81 659.17 1187.94 668.46 1190.03
  Q 670.25 1190.43 670.27 1192.27
  Q 670.69 1229.72 671.07 1270.56
  Q 671.12 1276.00 671.71 1281.13
  A 0.89 0.89 0.0 0 1 670.81 1282.12
  Q 668.82 1282.06 666.77 1281.76
  Q 645.70 1278.63 623.03 1274.61
  C 600.51 1270.62 578.90 1264.98 553.50 1257.44
  Q 531.01 1250.76 504.81 1240.05
  Q 494.85 1235.98 485.27 1231.43
  Q 434.11 1207.16 389.94 1176.04
  Q 380.34 1169.28 370.36 1160.74
  C 346.74 1140.55 321.91 1119.05 302.63 1096.85
  Q 292.40 1085.08 279.09 1068.86
  Q 272.52 1060.84 266.96 1053.05
  Q 250.44 1029.88 237.49 1008.64
  Q 209.52 962.71 188.80 906.14
  Q 185.30 896.56 182.40 886.97
  Q 172.29 853.44 166.73 823.06
  Q 162.99 802.62 160.16 777.68
  C 153.51 718.95 157.25 658.52 169.71 599.54
  Q 174.90 574.98 182.06 552.42
  Q 200.02 495.91 226.89 445.97
  Q 231.41 437.56 236.46 429.27
  C 240.86 422.05 245.16 414.74 249.85 407.83
  Q 264.09 386.85 277.48 369.59
  Q 291.26 351.84 313.35 327.86
  Q 320.41 320.19 327.82 313.11
  Q 356.25 285.91 382.24 266.55
  Q 421.25 237.49 464.98 214.50
  Q 497.30 197.51 537.95 183.22
  Q 568.63 172.44 598.22 165.95
  Q 633.06 158.31 667.60 154.62
  A 1.45 1.45 0.0 0 1 669.21 155.98
  Q 669.30 157.42 669.34 158.77
  Q 670.61 194.83 670.79 235.25
  Q 670.81 239.93 671.14 245.55
  A 1.04 1.03 -5.3 0 1 670.23 246.64
  C 654.60 248.48 639.50 251.17 623.07 254.52
  Q 576.35 264.06 527.66 285.65
  Q 500.31 297.78 481.72 309.18
  C 470.24 316.21 458.80 323.28 447.88 331.28
  C 433.34 341.94 419.47 352.01 405.82 364.33
  C 390.95 377.72 376.38 392.08 363.35 407.42
  Q 330.62 445.93 307.62 487.63
  C 299.80 501.81 291.83 517.07 285.59 532.54
  Q 262.39 590.03 253.12 650.96
  Q 248.35 682.28 248.24 714.92
  Q 247.99 792.05 271.49 864.97
  Q 274.70 874.93 278.20 883.80
  Q 291.08 916.47 303.20 939.40
  Q 313.14 958.19 328.65 981.71
  C 333.80 989.51 339.93 997.38 345.75 1005.28
  C 350.11 1011.21 355.39 1017.23 360.25 1023.25
  Z"
/>
<path fill="#cdf5fd" d="
  M 776.78 154.81
  C 784.20 155.89 791.24 157.08 798.23 158.06
  Q 812.68 160.10 827.37 162.42
  Q 831.67 163.10 835.81 164.04
  C 839.54 164.88 843.30 165.28 847.01 166.05
  Q 875.96 172.00 902.38 181.09
  C 920.46 187.31 938.76 194.42 956.15 202.73
  Q 1016.53 231.61 1067.60 270.49
  Q 1073.04 274.64 1077.92 278.73
  C 1082.27 282.38 1086.84 285.70 1090.97 289.43
  C 1103.76 300.99 1117.36 313.45 1129.95 325.97
  C 1138.22 334.19 1146.00 343.45 1153.96 352.29
  Q 1159.55 358.49 1164.85 365.48
  C 1169.43 371.53 1174.42 377.48 1178.84 383.63
  Q 1196.45 408.17 1205.39 423.19
  C 1212.72 435.49 1220.05 447.54 1226.48 460.12
  Q 1245.30 497.00 1258.03 535.78
  C 1262.54 549.53 1267.01 563.87 1270.34 577.73
  Q 1277.46 607.33 1281.36 635.63
  Q 1283.56 651.65 1285.24 667.87
  Q 1291.16 725.20 1284.52 780.65
  C 1282.77 795.33 1280.79 809.25 1277.98 823.43
  Q 1272.95 848.82 1266.23 872.66
  Q 1262.86 884.62 1257.09 901.32
  Q 1242.12 944.62 1223.92 978.18
  Q 1210.88 1002.24 1197.92 1022.81
  Q 1191.92 1032.33 1179.62 1049.58
  C 1154.00 1085.53 1124.55 1118.46 1090.30 1146.81
  C 1066.28 1166.70 1041.65 1184.98 1015.76 1200.84
  Q 922.65 1257.88 814.26 1275.57
  Q 796.58 1278.45 778.52 1281.04
  Q 776.72 1281.30 774.84 1281.19
  Q 774.11 1281.15 774.14 1280.41
  C 774.70 1268.00 774.34 1254.83 774.49 1243.42
  Q 774.80 1217.56 774.66 1191.44
  A 1.63 1.63 0.0 0 1 776.01 1189.82
  Q 811.44 1183.76 844.55 1175.49
  Q 874.06 1168.13 902.61 1156.77
  Q 942.32 1140.98 979.95 1116.47
  Q 1006.95 1098.88 1024.78 1083.51
  Q 1052.94 1059.25 1075.46 1034.23
  C 1086.60 1021.85 1098.37 1007.66 1108.49 993.43
  Q 1129.14 964.39 1145.68 933.06
  Q 1155.72 914.05 1163.60 893.62
  Q 1178.76 854.36 1187.68 812.32
  Q 1197.72 765.06 1196.57 715.88
  Q 1196.27 702.88 1196.00 690.50
  Q 1195.81 681.85 1191.38 649.52
  Q 1184.63 600.23 1168.16 554.29
  Q 1157.29 523.96 1144.22 499.31
  Q 1129.14 470.86 1108.94 442.23
  Q 1102.14 432.58 1096.24 425.22
  Q 1056.08 375.03 1008.69 339.19
  Q 975.26 313.90 932.77 292.60
  Q 923.41 287.91 914.49 284.09
  Q 847.33 255.38 775.19 245.40
  A 1.17 1.16 -86.1 0 1 774.19 244.24
  Q 774.18 224.70 774.50 204.25
  C 774.75 188.23 774.46 172.06 775.13 156.18
  A 1.45 1.44 -84.6 0 1 776.78 154.81
  Z"
/>
<path fill="#ffffff" d="
  M 501.17 606.12
  C 487.51 604.06 474.39 598.66 461.85 591.26
  Q 452.65 585.83 446.45 579.56
  Q 436.78 569.76 430.72 557.18
  Q 427.12 549.72 424.63 542.05
  C 421.32 531.83 420.85 521.93 421.48 510.96
  Q 422.92 485.89 438.64 463.51
  Q 452.79 443.36 474.08 433.60
  C 487.66 427.37 501.37 425.23 515.94 425.80
  C 535.30 426.55 554.63 435.30 569.95 447.38
  C 586.49 460.42 595.96 480.07 600.10 500.98
  Q 603.41 517.67 600.55 532.07
  C 594.14 564.36 574.23 587.13 544.50 600.24
  Q 523.52 609.49 501.17 606.12
  Z"
/>
<path fill="#cdf5fd" d="
  M 1022.23 505.19
  C 1025.93 532.97 1016.27 558.80 997.03 579.54
  C 987.38 589.94 974.64 596.45 961.26 601.53
  Q 938.94 609.99 914.06 604.29
  C 899.84 601.03 884.94 594.40 873.95 584.99
  C 857.20 570.67 846.03 549.58 842.29 527.76
  Q 841.16 521.16 841.61 515.06
  Q 843.53 489.14 856.07 469.32
  C 878.17 434.39 919.36 417.81 958.89 430.23
  C 993.58 441.12 1017.46 469.45 1022.23 505.19
  Z"
/>
<path fill="#ffffff" d="
  M 780.38 526.37
  C 775.37 534.51 772.88 540.85 769.38 550.51
  C 762.59 569.20 753.81 587.36 744.27 604.80
  Q 734.17 623.27 721.21 639.71
  Q 720.35 641.36 719.03 642.85
  Q 716.80 645.36 716.53 645.71
  Q 700.08 666.84 679.44 683.92
  Q 657.65 701.95 635.18 714.53
  Q 626.03 719.65 614.42 725.61
  Q 596.67 734.72 575.91 741.37
  Q 574.59 741.79 574.54 743.18
  Q 574.06 756.45 574.52 769.86
  C 574.65 773.75 574.17 776.64 577.83 779.18
  C 585.85 784.72 593.57 790.77 601.86 796.26
  Q 636.48 819.20 669.88 843.35
  C 671.97 844.86 674.36 846.15 676.60 847.38
  A 2.34 2.33 32.9 0 1 677.34 850.83
  Q 673.37 856.07 668.54 863.27
  Q 643.86 900.09 615.00 942.04
  Q 613.34 944.46 611.71 946.55
  Q 611.40 946.95 610.90 947.05
  Q 607.86 947.66 604.50 947.66
  Q 565.69 947.71 527.13 947.67
  Q 512.06 947.65 496.31 946.88
  A 0.78 0.78 0.0 0 1 495.66 945.74
  Q 498.31 940.68 500.96 936.66
  Q 514.47 916.12 528.52 895.99
  Q 535.01 886.68 542.16 874.05
  A 1.42 1.41 24.6 0 0 541.40 872.02
  C 534.22 869.48 528.65 865.12 522.91 860.23
  A 1.04 1.04 0.0 0 0 521.37 860.46
  Q 512.59 874.16 505.50 884.78
  Q 486.23 913.62 467.21 940.96
  Q 465.65 943.20 464.26 946.05
  A 2.95 2.93 -77.5 0 1 461.66 947.72
  Q 459.31 947.77 456.99 947.78
  Q 416.93 947.81 377.25 947.81
  Q 362.20 947.81 348.40 947.18
  A 1.08 1.08 0.0 0 1 347.46 945.68
  Q 348.01 944.39 348.69 943.20
  C 357.87 927.18 369.57 911.04 380.47 895.39
  Q 385.81 887.72 391.70 878.86
  Q 408.65 853.32 426.36 827.60
  Q 435.44 814.42 442.91 800.75
  Q 443.98 798.78 443.98 793.00
  C 443.95 759.15 443.76 723.67 444.82 688.99
  C 445.31 673.24 445.47 657.87 445.77 642.65
  Q 445.81 640.24 448.19 640.66
  Q 462.28 643.14 475.94 644.59
  Q 485.13 645.57 495.00 644.74
  Q 531.98 641.64 560.55 629.51
  Q 569.49 625.72 580.05 619.90
  C 602.37 607.59 622.24 590.14 636.96 570.38
  Q 647.39 556.37 657.21 537.23
  C 659.20 533.35 660.74 529.26 662.26 525.20
  A 1.90 1.90 0.0 0 1 663.97 523.96
  Q 677.26 523.45 690.26 523.45
  Q 728.67 523.46 766.50 523.95
  Q 772.10 524.02 777.54 524.06
  C 779.25 524.07 779.81 524.92 780.38 526.37
  Z"
/>
<path fill="#cdf5fd" d="
  M 780.38 526.37
  Q 782.61 529.08 783.23 530.26
  Q 793.03 548.94 797.45 556.04
  Q 816.77 587.07 845.61 609.05
  Q 851.45 613.50 857.48 616.99
  Q 885.99 633.48 917.05 640.63
  Q 938.57 645.57 958.82 644.65
  Q 978.29 643.76 996.76 641.19
  A 1.92 1.92 0.0 0 1 998.94 643.07
  C 999.09 665.38 999.76 689.70 999.86 713.50
  Q 1000.01 749.13 999.96 785.25
  Q 999.95 793.66 1000.83 799.17
  Q 1001.25 801.75 1003.11 805.13
  Q 1005.76 809.94 1008.70 814.25
  Q 1023.04 835.23 1036.97 855.52
  Q 1062.07 892.09 1089.80 933.19
  Q 1093.54 938.73 1096.95 944.26
  Q 1097.45 945.06 1097.52 945.90
  A 1.23 1.22 86.9 0 1 1096.33 947.23
  C 1059.05 947.95 1020.24 948.59 982.01 947.47
  C 980.89 947.43 979.82 947.09 979.16 946.09
  Q 957.64 913.81 931.24 875.34
  Q 926.80 868.87 921.76 861.21
  C 920.60 859.44 918.65 860.61 917.68 861.81
  C 913.67 866.76 908.71 869.36 902.96 871.80
  A 1.95 1.95 0.0 0 0 902.08 874.64
  Q 911.62 889.54 921.72 903.80
  Q 933.34 920.21 946.26 941.35
  C 947.16 942.84 947.75 944.53 948.32 946.19
  A 0.57 0.57 0.0 0 1 947.80 946.95
  Q 898.72 948.53 844.51 947.70
  Q 839.77 947.63 834.75 947.22
  Q 831.71 946.98 830.13 944.61
  C 811.87 917.23 794.36 891.23 776.09 864.67
  C 772.78 859.87 769.87 854.43 766.20 849.51
  A 1.79 1.79 0.0 0 1 766.75 846.89
  Q 774.10 842.68 782.03 837.16
  Q 816.51 813.19 862.38 781.42
  Q 865.04 779.57 868.06 777.32
  Q 869.16 776.49 869.15 773.87
  Q 869.06 757.05 869.32 743.25
  A 2.22 2.21 8.8 0 0 867.73 741.09
  Q 863.69 739.90 859.41 738.19
  C 817.84 721.56 778.91 699.57 747.31 667.61
  Q 735.15 655.31 723.61 641.65
  Q 722.90 640.81 721.21 639.71
  Q 734.17 623.27 744.27 604.80
  C 753.81 587.36 762.59 569.20 769.38 550.51
  C 772.88 540.85 775.37 534.51 780.38 526.37
  Z"
/>
</svg>
