<svg width="460" height="460" viewBox="0 0 460 460" fill="none" xmlns="http://www.w3.org/2000/svg">
<g clip-path="url(#clip0_702_21)">
<path d="M75.056 453.434C84.9998 455.721 94.5389 457.256 103.673 458.04C105.712 458.214 107.8 458.347 109.936 458.44C115.407 458.682 121.085 459.015 126.603 459.098C138.056 459.271 149.474 459.318 160.857 459.238C171.036 459.163 180.255 459.116 188.514 459.095C223.614 459.008 262.372 459.011 304.786 459.104C314.287 459.123 323.665 459.085 332.92 458.99C335.031 458.966 337.165 458.912 339.322 458.828C345.28 458.593 351.488 458.478 357.535 457.989C363.59 457.496 369.639 456.766 375.684 455.8C381.715 454.835 387.27 453.567 392.348 451.998C400.283 449.545 408.306 445.479 415.462 440.771C417.363 439.521 419.145 438.216 420.806 436.854C425.746 432.811 429.975 428.805 433.494 424.836C439.635 417.901 444.782 409.807 448.813 401.372C450.746 397.325 452.33 392.993 453.566 388.376C454.564 384.646 455.419 380.78 456.131 376.777C457.68 368.069 458.608 359.197 458.913 350.162C459.214 341.337 459.358 334.295 459.345 329.037C459.237 284.209 459.348 239.238 459.348 194.337C459.348 192.382 459.341 190.267 459.326 187.99C459.229 173.616 459.209 158.102 459.269 141.447C459.294 133.979 459.205 126.236 459.002 118.218C458.758 108.569 458.13 99.6042 457.117 91.3233C456.281 84.4932 455.127 77.9903 453.346 71.1666C452.039 66.1621 450.248 61.3894 447.974 56.8487C443.818 48.5531 438.669 41.0114 432.527 34.2236C426.884 27.9812 420.673 22.4599 413.644 18.1427C412.413 17.3866 411.138 16.621 409.82 15.8458C403.771 12.2836 397.282 9.47849 390.351 7.43051C386.554 6.30804 382.34 5.33277 377.712 4.50468C368.66 2.88452 359.93 1.89548 351.52 1.53756C344.704 1.24529 337.683 1.08645 330.456 1.06104C318.27 1.01444 298.984 1.02609 272.598 1.09598C270.426 1.10234 268.306 1.10339 266.237 1.09916C226.051 1.03986 185.387 1.02186 144.247 1.04515C133.171 1.05151 122.216 1.03245 111.894 1.39778C104.934 1.64345 97.7741 2.28516 90.4137 3.32292C88.4978 3.594 86.4049 3.94239 84.1351 4.36808C79.3222 5.26606 76.2587 5.90459 74.9447 6.28369C73.0648 6.82374 71.1479 7.37439 69.1939 7.93562C60.6551 10.3818 52.8348 14.1018 45.7329 19.0957C40.4876 22.7829 35.7467 26.6438 31.5101 30.6783C28.5409 33.5035 25.9363 36.3955 23.6962 39.3541C22.3568 41.1225 21.0226 42.982 19.6938 44.9326C13.5478 53.9547 9.18089 63.8165 6.59319 74.5181C4.68792 82.3902 3.43964 89.8959 2.84834 97.0352C2.10446 106.032 1.5831 115.619 1.49091 125.172C1.41144 132.958 1.2811 140.694 1.29382 148.439C1.4019 208.106 1.21434 267.578 1.27474 327.131C1.28534 338.302 1.69543 348.942 2.50501 359.051C3.28069 368.774 4.70487 377.877 6.77758 386.359C9.29322 396.662 13.6559 406.298 19.8655 415.268C24.4464 421.885 29.4597 427.883 35.4266 433.07C37.5333 434.902 39.4936 436.494 41.3078 437.845C51.2008 445.218 62.7469 450.603 75.056 453.434Z" stroke="#AFEFEF" stroke-width="2"/>
<path d="M114.523 325.066C112.978 323.153 111.3 321.241 109.914 319.357C108.063 316.847 106.115 314.347 104.478 311.869C101.19 306.888 98.4936 302.408 96.387 298.428C93.8184 293.572 91.1692 287.684 88.4396 280.765C87.6978 278.887 86.9867 276.893 86.3064 274.783C81.326 259.34 78.8623 243.451 78.9153 227.115C78.9386 220.203 79.4557 213.43 80.4666 206.797C82.4313 193.893 85.872 181.353 90.7888 169.177C92.7725 164.263 95.3062 159.415 97.7921 154.91C102.667 146.079 108.572 137.585 115.509 129.429C119.651 124.556 124.283 119.994 129.01 115.74C133.349 111.826 137.758 108.627 142.381 105.241C145.852 102.699 149.489 100.453 153.138 98.2201C157.078 95.8058 161.946 93.3141 167.743 90.7451C178.062 86.1727 188.172 82.8762 198.073 80.8558C203.296 79.7916 208.097 78.937 213.066 78.3525C213.149 78.3421 213.226 78.3004 213.28 78.2361C213.333 78.1717 213.36 78.0895 213.355 78.0062C213.285 76.816 213.248 75.7253 213.244 74.7341C213.205 66.1737 213.052 58.075 212.783 50.438C212.774 50.1521 212.76 49.8566 212.741 49.5516C212.738 49.4891 212.722 49.4279 212.694 49.3718C212.666 49.3157 212.626 49.2659 212.578 49.2254C212.531 49.185 212.475 49.1548 212.415 49.1366C212.355 49.1184 212.292 49.1126 212.229 49.1196C204.909 49.9011 197.557 51.1009 190.174 52.7189C183.903 54.0934 177.516 55.9222 171.014 58.2052C162.399 61.2317 154.666 64.544 147.817 68.1422C138.549 73.0112 129.781 78.5229 121.514 84.6775C116.006 88.7776 110.239 93.708 104.214 99.4686C102.643 100.968 101.11 102.53 99.6137 104.154C94.9321 109.233 91.1311 113.652 88.2107 117.411C85.3729 121.067 82.445 125.116 79.4271 129.559C77.9362 131.754 76.5692 134.077 75.1704 136.37C74.1002 138.126 73.0861 139.894 72.1281 141.676C66.4335 152.252 61.683 163.524 57.8767 175.493C56.3593 180.27 55.0506 185.26 53.9507 190.462C49.9897 209.198 48.8007 228.396 50.9147 247.053C51.5145 252.335 52.2107 257.14 53.0033 261.469C54.1817 267.903 55.8422 274.671 57.9848 281.772C58.5994 283.803 59.2776 285.833 60.0194 287.862C64.4106 299.843 69.5701 310.697 75.4979 320.424C78.2424 324.923 81.3652 329.625 84.8664 334.532C86.0447 336.182 87.3301 337.856 88.7225 339.555C91.5433 342.99 94.0378 345.954 96.2058 348.447C102.335 355.499 110.228 362.329 117.737 368.743C119.852 370.552 121.927 372.172 123.962 373.604C133.323 380.195 143.424 386.06 154.267 391.2C156.297 392.164 158.368 393.077 160.479 393.939C166.031 396.207 171.191 398.048 175.957 399.463C184.032 401.858 190.902 403.65 198.061 404.918C202.865 405.769 207.5 406.526 211.966 407.189C212.4 407.252 212.828 407.291 213.25 407.303C213.29 407.304 213.33 407.296 213.367 407.28C213.404 407.264 213.437 407.241 213.464 407.211C213.491 407.181 213.512 407.146 213.524 407.108C213.537 407.069 213.541 407.029 213.536 406.989C213.411 405.902 213.343 404.783 213.333 403.631C213.252 394.982 213.167 386.691 213.078 378.76C213.074 378.37 212.882 378.133 212.503 378.048C209.55 377.384 206.574 376.708 203.506 376.085C194.664 374.297 187.104 372.366 180.824 370.29C169.346 366.497 158.035 361.049 146.892 353.946C141.808 350.706 136.922 346.874 132.427 343.138C128.157 339.589 124.136 335.775 120.366 331.696C118.354 329.519 116.373 327.353 114.523 325.066Z" stroke="#AFEFEF" stroke-width="2"/>
<path d="M253.757 50.2124C251.534 49.9011 249.296 49.523 246.938 49.18C246.874 49.1706 246.81 49.1747 246.748 49.192C246.686 49.2093 246.629 49.2394 246.579 49.2805C246.53 49.3215 246.49 49.3725 246.461 49.4301C246.432 49.4878 246.416 49.5508 246.413 49.6152C246.2 54.6599 246.292 59.7968 246.213 64.886C246.145 69.2171 246.112 73.4517 246.114 77.59C246.114 77.6799 246.146 77.7667 246.205 77.8344C246.263 77.9022 246.344 77.9463 246.432 77.9585C261.721 80.0722 276.482 84.1692 290.716 90.2496C292.606 91.0586 294.543 91.9597 296.527 92.953C305.532 97.4641 313.577 102.398 320.662 107.754C330.705 115.344 339.982 124.454 348.494 135.084C349.744 136.642 351.09 138.444 352.531 140.487C356.812 146.551 360.551 152.595 363.746 158.621C366.516 163.841 369.053 169.663 371.357 176.087C374.848 185.816 377.308 195.9 378.739 206.339C379.677 213.186 380.167 217.526 380.207 219.358C380.265 221.98 380.325 224.667 380.388 227.42C380.632 237.836 379.69 248.048 377.562 258.057C375.672 266.961 373.12 275.57 369.907 283.885C368.237 288.212 366.338 292.388 364.211 296.414C360.705 303.049 356.764 309.442 352.388 315.592C349.171 320.113 345.429 324.621 341.888 328.554C337.115 333.853 331.745 339.071 325.777 344.209C321.998 347.464 317.247 350.954 311.525 354.68C303.55 359.871 295.355 364.138 286.939 367.482C280.888 369.888 274.736 371.87 268.482 373.429C261.465 375.181 254.202 376.698 246.693 377.981C246.572 378.003 246.462 378.066 246.384 378.16C246.305 378.254 246.263 378.373 246.264 378.496C246.293 384.028 246.275 389.532 246.21 395.009C246.162 398.634 246.276 402.818 246.098 406.76C246.092 406.917 246.166 406.999 246.321 407.008C246.719 407.031 247.109 407.015 247.491 406.96C251.318 406.412 255.106 405.832 258.853 405.222C281.824 401.476 303.176 393.563 322.909 381.482C331.14 376.444 338.969 370.637 346.605 364.318C357.493 355.312 366.856 344.851 375 333.43C377.607 329.777 379.546 326.942 380.818 324.926C383.564 320.569 386.319 315.843 389.083 310.748C392.94 303.64 396.455 295.501 399.628 286.331C400.851 282.794 401.819 279.759 402.533 277.226C403.958 272.177 405.203 266.964 406.269 261.587C407.162 257.082 407.791 252.66 408.348 247.997C409.755 236.253 409.831 224.31 408.577 212.169C408.221 208.733 407.809 205.319 407.343 201.927C406.517 195.933 405.349 189.802 403.84 183.533C402.781 179.13 401.36 174.574 399.927 170.206C397.229 161.993 393.885 153.981 389.897 146.171C387.853 142.174 385.523 138.346 383.192 134.439C381.298 131.258 378.484 127.069 374.752 121.871C373.347 119.918 371.761 118.027 370.305 116.106C369.182 114.625 368.028 113.228 366.843 111.915C364.312 109.107 361.839 106.165 359.21 103.554C355.208 99.5766 350.884 95.6184 346.818 91.946C345.505 90.761 344.053 89.7063 342.67 88.5468C341.636 87.6806 340.542 86.808 339.389 85.9291C328.566 77.6949 316.756 70.5195 303.959 64.4032C298.431 61.7632 292.613 59.5045 286.866 57.5286C281.267 55.6034 275.399 54.0108 269.264 52.7507C268.084 52.5061 266.889 52.379 265.703 52.1121C264.826 51.9131 263.931 51.7415 263.02 51.5975C259.907 51.1061 256.819 50.6445 253.757 50.2124Z" stroke="#96EAEE" stroke-width="2"/>
<path d="M159.321 192.552C164.058 193.266 168.65 192.643 173.096 190.684C182.547 186.519 188.877 179.286 190.914 169.028C191.52 165.978 191.473 162.686 190.771 159.151C189.455 152.508 186.445 146.266 181.187 142.123C176.316 138.286 170.171 135.506 164.017 135.268C159.385 135.087 155.027 135.767 150.71 137.746C146.198 139.813 142.442 142.98 139.443 147.248C136.112 151.987 134.293 157.012 133.988 162.322C133.788 165.806 133.937 168.952 134.989 172.198C135.517 173.823 136.163 175.425 136.925 177.005C138.21 179.669 139.877 182.039 141.926 184.114C143.24 185.442 144.872 186.681 146.822 187.831C150.808 190.182 154.979 191.898 159.321 192.552Z" stroke="#AFEFEF" stroke-width="2"/>
<path d="M324.966 160.489C323.45 149.135 315.858 140.135 304.83 136.675C292.264 132.73 279.169 137.997 272.144 149.093C269.486 153.291 267.954 158.135 267.547 163.624C267.452 164.916 267.524 166.261 267.763 167.659C268.952 174.59 272.503 181.29 277.828 185.839C281.322 188.829 286.058 190.935 290.579 191.971C295.852 193.178 300.853 192.885 305.584 191.094C309.837 189.48 313.887 187.412 316.955 184.108C323.071 177.519 326.142 169.314 324.966 160.489Z" stroke="#96EAEE" stroke-width="2"/>
<path d="M229.272 203.223C229.63 203.456 229.884 203.661 230.035 203.839C232.481 206.732 234.992 209.481 237.569 212.086C247.615 222.239 259.991 229.225 273.206 234.508C274.113 234.87 274.994 235.177 275.851 235.429C275.999 235.473 276.128 235.564 276.219 235.688C276.311 235.811 276.359 235.962 276.356 236.115C276.301 239.038 276.283 242.28 276.302 245.843C276.304 246.397 276.189 246.763 275.955 246.939C275.315 247.415 274.714 247.849 274.15 248.241C264.428 254.97 255.914 260.872 248.607 265.949C246.926 267.118 245.307 268.148 243.749 269.04C243.679 269.079 243.619 269.134 243.571 269.199C243.524 269.264 243.491 269.338 243.475 269.416C243.458 269.495 243.458 269.576 243.476 269.655C243.493 269.733 243.526 269.807 243.574 269.872C244.741 271.435 245.666 273.163 246.718 274.688C252.526 283.125 258.093 291.385 263.898 300.083C264.232 300.585 264.722 300.862 265.366 300.912C266.43 300.999 267.464 301.05 268.469 301.065C279.958 301.241 290.903 301.161 301.305 300.827C301.333 300.826 301.361 300.818 301.386 300.804C301.411 300.791 301.433 300.771 301.449 300.748C301.465 300.724 301.475 300.697 301.479 300.669C301.483 300.641 301.48 300.612 301.47 300.585C301.289 300.058 301.101 299.521 300.815 299.048C298.077 294.57 295.477 290.594 293.014 287.119C290.873 284.099 288.792 281.011 286.77 277.855C286.722 277.779 286.691 277.694 286.679 277.605C286.667 277.516 286.675 277.425 286.701 277.339C286.728 277.254 286.773 277.175 286.833 277.108C286.893 277.041 286.967 276.988 287.05 276.953C288.878 276.178 290.455 275.352 291.73 273.779C292.038 273.398 292.658 273.026 293.027 273.589C294.095 275.211 295.099 276.707 296.04 278.078C301.635 286.225 306.713 293.717 311.274 300.553C311.484 300.871 311.824 300.979 312.18 300.992C324.333 301.348 336.671 301.144 348.522 300.916C348.575 300.914 348.627 300.902 348.675 300.88C348.724 300.858 348.767 300.826 348.802 300.787C348.838 300.747 348.865 300.701 348.882 300.65C348.898 300.6 348.905 300.546 348.901 300.493C348.886 300.315 348.825 300.141 348.719 299.972C347.997 298.801 347.239 297.629 346.446 296.455C340.57 287.751 334.971 279.526 329.652 271.781C326.7 267.484 323.704 263.114 320.665 258.671C320.042 257.758 319.449 256.792 318.888 255.773C318.494 255.057 318.252 254.426 318.163 253.88C317.976 252.713 317.884 251.239 317.886 249.458C317.897 241.808 317.886 234.21 317.855 226.664C317.823 219.104 317.61 211.378 317.562 204.29C317.561 204.204 317.542 204.118 317.505 204.04C317.469 203.962 317.416 203.892 317.35 203.835C317.285 203.779 317.208 203.737 317.125 203.712C317.042 203.688 316.955 203.681 316.869 203.693C312.955 204.237 308.934 204.604 304.808 204.792C300.516 204.987 296.09 204.561 291.529 203.515C284.947 202.001 278.634 199.497 272.592 196.005C271.314 195.266 270.056 194.425 268.819 193.483C262.706 188.828 257.603 183.214 253.509 176.642C252.572 175.139 251.065 172.409 248.988 168.453C248.857 168.203 248.555 167.791 248.082 167.217" stroke="#96EAEE" stroke-width="2"/>
<path d="M248.082 167.217C247.901 166.756 247.723 166.486 247.179 166.483C246.026 166.475 244.856 166.463 243.67 166.448C235.652 166.344 227.573 166.291 219.433 166.289C216.678 166.289 213.892 166.343 211.075 166.451C210.956 166.456 210.841 166.496 210.744 166.566C210.647 166.636 210.573 166.733 210.532 166.845C210.049 168.135 209.559 169.434 208.926 170.667C206.845 174.721 204.699 178.231 202.489 181.198C197.809 187.475 191.493 193.019 184.397 196.93C182.159 198.162 180.093 199.18 178.198 199.982C172.143 202.551 165.197 204.164 157.36 204.821C155.268 204.996 153.248 204.981 151.301 204.773C148.406 204.466 145.465 204.05 142.479 203.525C141.975 203.436 141.718 203.646 141.71 204.157C141.614 208.992 141.564 213.875 141.408 218.878C141.071 229.895 141.131 241.166 141.141 251.92C141.141 253.144 141.027 253.965 140.801 254.382C139.217 257.277 137.464 260.12 135.539 262.912C131.786 268.359 128.113 273.787 124.521 279.196C123.273 281.072 122.083 282.823 120.951 284.447C117.486 289.419 113.766 294.546 110.848 299.635C110.704 299.887 110.574 300.15 110.457 300.423C110.436 300.474 110.427 300.529 110.431 300.584C110.435 300.639 110.453 300.692 110.482 300.739C110.512 300.786 110.552 300.825 110.599 300.853C110.647 300.881 110.701 300.897 110.756 300.9C113.681 301.033 116.738 301.1 119.927 301.1C128.337 301.1 136.787 301.097 145.277 301.09C145.768 301.088 146.263 301.082 146.761 301.071C146.934 301.068 147.103 301.017 147.249 300.924C147.395 300.83 147.512 300.697 147.588 300.541C147.882 299.937 148.195 299.398 148.526 298.924C152.557 293.133 156.614 287.184 160.698 281.076C162.201 278.827 163.882 276.252 165.743 273.35C165.768 273.311 165.802 273.278 165.841 273.253C165.881 273.227 165.925 273.211 165.971 273.204C166.018 273.197 166.065 273.2 166.11 273.213C166.155 273.225 166.197 273.247 166.233 273.277C168.057 274.831 169.828 276.216 172.111 277.023C172.173 277.045 172.229 277.081 172.276 277.127C172.323 277.173 172.359 277.229 172.382 277.29C172.405 277.352 172.414 277.417 172.409 277.482C172.404 277.548 172.385 277.611 172.352 277.668C170.837 280.343 169.391 282.666 168.016 284.638C165.038 288.901 162.118 293.208 159.255 297.558C158.693 298.409 158.131 299.371 157.57 300.442C157.551 300.479 157.541 300.52 157.542 300.561C157.542 300.603 157.554 300.644 157.574 300.68C157.595 300.716 157.624 300.746 157.659 300.768C157.695 300.79 157.735 300.802 157.776 300.804C161.114 300.967 164.38 301.051 167.574 301.055C175.746 301.064 183.945 301.063 192.17 301.052C192.882 301.052 193.56 300.988 194.204 300.858C194.31 300.837 194.396 300.784 194.462 300.7C194.807 300.257 195.156 299.779 195.508 299.267C201.624 290.382 207.298 282.041 212.528 274.243C213.552 272.718 214.484 271.401 215.326 270.291C215.39 270.207 215.435 270.109 215.458 270.006C215.481 269.902 215.481 269.795 215.459 269.691C215.436 269.587 215.392 269.489 215.328 269.403C215.265 269.318 215.184 269.247 215.09 269.195C214.378 268.804 213.619 268.395 212.954 267.915C205.876 262.8 198.668 257.814 191.331 252.955C188.695 251.211 186.241 249.289 183.692 247.529C182.528 246.723 182.681 245.804 182.639 244.569C182.542 241.729 182.544 238.903 182.646 236.093C182.656 235.799 182.801 235.607 183.081 235.518C187.481 234.11 191.562 232.441 195.323 230.511C197.784 229.249 199.984 228.076 201.923 226.992C206.685 224.327 211.375 221.086 215.993 217.267C220.368 213.65 224.298 209.604 227.784 205.129C227.841 205.055 228.106 204.752 228.579 204.22C228.859 203.905 229.09 203.572 229.272 203.223" stroke="#AFEFEF" stroke-width="2"/>
<path d="M248.082 167.217C246.489 169.803 245.698 171.817 244.585 174.886C242.427 180.823 239.635 186.592 236.603 192.133C234.462 196.044 232.019 199.741 229.272 203.223" stroke="#E6FAFE" stroke-width="2"/>
<path d="M75.056 453.434C62.7469 450.603 51.2008 445.218 41.3078 437.845C39.4936 436.494 37.5333 434.902 35.4266 433.07C29.4597 427.883 24.4464 421.885 19.8655 415.268C13.6559 406.298 9.29322 396.662 6.77758 386.359C4.70487 377.877 3.28069 368.774 2.50501 359.051C1.69543 348.942 1.28534 338.302 1.27474 327.131C1.21434 267.578 1.4019 208.106 1.29382 148.439C1.2811 140.694 1.41144 132.958 1.49091 125.172C1.5831 115.619 2.10446 106.032 2.84834 97.0352C3.43964 89.8959 4.68792 82.3902 6.59319 74.5181C9.18089 63.8165 13.5478 53.9547 19.6938 44.9326C21.0226 42.982 22.3568 41.1225 23.6962 39.3541C25.9363 36.3955 28.5409 33.5035 31.5101 30.6783C35.7467 26.6438 40.4876 22.7829 45.7329 19.0957C52.8348 14.1018 60.6551 10.3818 69.1939 7.93562C71.1479 7.37439 73.0648 6.82374 74.9447 6.28369C76.2587 5.90459 79.3222 5.26606 84.1351 4.36808C86.4049 3.94239 88.4978 3.594 90.4137 3.32292C97.7741 2.28516 104.934 1.64345 111.894 1.39778C122.216 1.03245 133.171 1.05151 144.247 1.04515C185.387 1.02186 226.051 1.03986 266.237 1.09916C268.306 1.10339 270.426 1.10234 272.598 1.09598C298.984 1.02609 318.27 1.01444 330.456 1.06104C337.683 1.08645 344.704 1.24529 351.52 1.53756C359.93 1.89548 368.66 2.88452 377.712 4.50468C382.34 5.33277 386.554 6.30804 390.351 7.43051C397.282 9.47849 403.771 12.2836 409.82 15.8458C411.138 16.621 412.413 17.3866 413.644 18.1427C420.673 22.4599 426.884 27.9812 432.527 34.2236C438.669 41.0114 443.818 48.5531 447.974 56.8487C450.248 61.3894 452.039 66.162 453.346 71.1666C455.127 77.9903 456.281 84.4932 457.117 91.3233C458.13 99.6042 458.758 108.569 459.002 118.218C459.205 126.236 459.294 133.979 459.269 141.447C459.209 158.102 459.229 173.616 459.326 187.99C459.341 190.267 459.348 192.382 459.348 194.337C459.348 239.238 459.237 284.209 459.345 329.037C459.358 334.295 459.214 341.337 458.913 350.162C458.608 359.197 457.68 368.069 456.131 376.777C455.419 380.78 454.564 384.646 453.566 388.376C452.33 392.993 450.746 397.325 448.813 401.372C444.782 409.807 439.635 417.901 433.494 424.836C429.975 428.805 425.746 432.811 420.806 436.854C419.145 438.216 417.363 439.521 415.462 440.771C408.306 445.479 400.283 449.545 392.348 451.998C387.27 453.567 381.715 454.835 375.684 455.8C369.639 456.766 363.59 457.496 357.535 457.989C351.488 458.478 345.28 458.593 339.322 458.828C337.165 458.913 335.031 458.966 332.92 458.99C323.665 459.085 314.287 459.123 304.786 459.104C262.372 459.011 223.614 459.008 188.514 459.095C180.255 459.116 171.036 459.163 160.857 459.238C149.474 459.318 138.056 459.271 126.603 459.098C121.085 459.015 115.407 458.682 109.936 458.44C107.8 458.347 105.712 458.214 103.673 458.04C94.5389 457.256 84.9998 455.721 75.056 453.434ZM114.523 325.066C112.978 323.153 111.3 321.241 109.914 319.357C108.063 316.847 106.115 314.347 104.478 311.869C101.19 306.888 98.4936 302.408 96.387 298.428C93.8184 293.572 91.1692 287.684 88.4395 280.765C87.6977 278.887 86.9867 276.893 86.3064 274.783C81.326 259.34 78.8623 243.451 78.9152 227.115C78.9386 220.203 79.4557 213.43 80.4666 206.797C82.4312 193.893 85.8719 181.353 90.7888 169.177C92.7725 164.263 95.3061 159.415 97.7921 154.91C102.667 146.079 108.572 137.585 115.509 129.429C119.651 124.556 124.283 119.994 129.01 115.74C133.349 111.826 137.758 108.627 142.381 105.241C145.852 102.699 149.489 100.453 153.138 98.2201C157.078 95.8058 161.946 93.3141 167.743 90.7451C178.062 86.1727 188.172 82.8762 198.073 80.8558C203.296 79.7916 208.097 78.937 213.065 78.3525C213.149 78.3421 213.226 78.3004 213.279 78.2361C213.333 78.1717 213.36 78.0895 213.355 78.0062C213.285 76.816 213.248 75.7253 213.244 74.7341C213.205 66.1737 213.052 58.075 212.783 50.438C212.774 50.1521 212.76 49.8566 212.741 49.5516C212.738 49.4891 212.721 49.4279 212.694 49.3718C212.666 49.3157 212.626 49.2659 212.578 49.2255C212.531 49.185 212.475 49.1548 212.415 49.1366C212.355 49.1184 212.292 49.1126 212.229 49.1196C204.909 49.9011 197.557 51.1009 190.174 52.7189C183.902 54.0934 177.516 55.9222 171.014 58.2052C162.399 61.2317 154.666 64.544 147.817 68.1423C138.549 73.0112 129.781 78.5229 121.514 84.6775C116.006 88.7776 110.239 93.708 104.214 99.4686C102.643 100.968 101.11 102.53 99.6137 104.154C94.9321 109.233 91.131 113.652 88.2106 117.411C85.3728 121.067 82.445 125.116 79.4271 129.559C77.9361 131.754 76.5692 134.077 75.1704 136.37C74.1001 138.126 73.086 139.894 72.1281 141.676C66.4335 152.252 61.683 163.524 57.8767 175.493C56.3592 180.27 55.0506 185.26 53.9506 190.462C49.9896 209.198 48.8007 228.396 50.9147 247.053C51.5145 252.335 52.2107 257.14 53.0033 261.469C54.1816 267.903 55.8421 274.671 57.9848 281.772C58.5994 283.803 59.2776 285.833 60.0193 287.862C64.4106 299.843 69.5701 310.697 75.4978 320.424C78.2424 324.923 81.3652 329.625 84.8663 334.532C86.0447 336.182 87.33 337.856 88.7224 339.555C91.5433 342.99 94.0377 345.954 96.2058 348.447C102.335 355.499 110.228 362.329 117.737 368.743C119.852 370.552 121.927 372.172 123.962 373.604C133.323 380.195 143.424 386.06 154.267 391.2C156.297 392.164 158.368 393.077 160.479 393.939C166.031 396.207 171.191 398.048 175.957 399.463C184.032 401.858 190.902 403.65 198.061 404.918C202.865 405.769 207.5 406.526 211.966 407.189C212.4 407.252 212.828 407.291 213.25 407.303C213.29 407.304 213.33 407.296 213.367 407.28C213.404 407.264 213.437 407.241 213.464 407.211C213.491 407.181 213.512 407.146 213.524 407.108C213.536 407.069 213.541 407.029 213.536 406.989C213.411 405.902 213.343 404.783 213.333 403.631C213.252 394.982 213.167 386.691 213.078 378.76C213.074 378.37 212.882 378.133 212.503 378.048C209.55 377.384 206.574 376.708 203.506 376.085C194.664 374.297 187.104 372.366 180.824 370.29C169.346 366.497 158.035 361.049 146.892 353.946C141.808 350.706 136.922 346.874 132.427 343.138C128.157 339.589 124.136 335.775 120.366 331.696C118.354 329.519 116.373 327.353 114.523 325.066ZM253.757 50.2124C251.534 49.9011 249.296 49.5231 246.938 49.18C246.874 49.1706 246.81 49.1747 246.748 49.192C246.686 49.2093 246.629 49.2394 246.579 49.2805C246.53 49.3215 246.49 49.3725 246.461 49.4301C246.432 49.4878 246.416 49.5508 246.413 49.6152C246.2 54.6599 246.292 59.7968 246.213 64.886C246.145 69.2171 246.112 73.4517 246.114 77.59C246.114 77.6799 246.146 77.7667 246.205 77.8344C246.263 77.9022 246.344 77.9463 246.432 77.9585C261.721 80.0722 276.482 84.1692 290.716 90.2496C292.606 91.0586 294.543 91.9597 296.527 92.953C305.532 97.4641 313.577 102.398 320.662 107.754C330.705 115.344 339.982 124.454 348.494 135.084C349.744 136.642 351.09 138.444 352.531 140.487C356.812 146.551 360.551 152.595 363.746 158.621C366.516 163.841 369.053 169.663 371.357 176.087C374.848 185.816 377.308 195.9 378.739 206.339C379.677 213.186 380.167 217.526 380.207 219.358C380.265 221.98 380.325 224.667 380.388 227.42C380.632 237.836 379.69 248.048 377.562 258.057C375.672 266.961 373.12 275.57 369.907 283.885C368.237 288.212 366.338 292.388 364.211 296.414C360.705 303.049 356.764 309.442 352.388 315.592C349.171 320.113 345.429 324.621 341.888 328.554C337.115 333.853 331.745 339.071 325.777 344.209C321.998 347.464 317.247 350.954 311.525 354.68C303.55 359.871 295.355 364.138 286.939 367.482C280.888 369.888 274.736 371.87 268.482 373.429C261.465 375.181 254.202 376.698 246.693 377.981C246.572 378.003 246.462 378.066 246.384 378.16C246.305 378.254 246.263 378.373 246.264 378.496C246.293 384.028 246.275 389.532 246.21 395.009C246.162 398.634 246.276 402.818 246.098 406.76C246.092 406.917 246.166 406.999 246.321 407.008C246.719 407.031 247.109 407.015 247.491 406.96C251.318 406.412 255.106 405.832 258.853 405.223C281.824 401.476 303.176 393.563 322.909 381.482C331.14 376.444 338.969 370.637 346.605 364.318C357.493 355.312 366.856 344.851 375 333.43C377.607 329.777 379.546 326.942 380.818 324.926C383.564 320.569 386.319 315.843 389.083 310.748C392.94 303.64 396.455 295.501 399.628 286.331C400.851 282.794 401.819 279.759 402.533 277.226C403.958 272.177 405.203 266.964 406.269 261.587C407.162 257.082 407.791 252.66 408.348 247.997C409.755 236.253 409.831 224.31 408.577 212.169C408.221 208.733 407.809 205.319 407.343 201.927C406.517 195.933 405.349 189.802 403.84 183.533C402.781 179.13 401.36 174.574 399.927 170.206C397.229 161.993 393.885 153.981 389.897 146.171C387.853 142.174 385.523 138.346 383.192 134.439C381.298 131.258 378.484 127.069 374.752 121.871C373.347 119.918 371.761 118.027 370.305 116.106C369.181 114.625 368.028 113.228 366.843 111.915C364.312 109.107 361.839 106.165 359.21 103.554C355.208 99.5766 350.884 95.6183 346.818 91.946C345.505 90.761 344.053 89.7063 342.67 88.5468C341.636 87.6806 340.542 86.808 339.389 85.9291C328.566 77.6949 316.756 70.5196 303.959 64.4032C298.431 61.7632 292.613 59.5045 286.866 57.5286C281.267 55.6034 275.399 54.0108 269.264 52.7507C268.084 52.5061 266.889 52.379 265.703 52.1121C264.826 51.9131 263.931 51.7415 263.02 51.5975C259.907 51.1062 256.819 50.6445 253.757 50.2124ZM159.321 192.552C164.058 193.266 168.65 192.643 173.096 190.684C182.547 186.519 188.877 179.286 190.914 169.028C191.52 165.978 191.473 162.686 190.771 159.151C189.455 152.508 186.445 146.266 181.187 142.123C176.316 138.286 170.171 135.506 164.017 135.268C159.385 135.087 155.027 135.767 150.71 137.746C146.198 139.813 142.442 142.98 139.443 147.248C136.112 151.987 134.293 157.012 133.988 162.322C133.788 165.806 133.937 168.951 134.989 172.198C135.517 173.823 136.163 175.425 136.925 177.005C138.21 179.669 139.877 182.039 141.926 184.114C143.24 185.442 144.872 186.681 146.822 187.831C150.808 190.182 154.979 191.897 159.321 192.552ZM324.966 160.489C323.45 149.135 315.858 140.135 304.83 136.675C292.264 132.73 279.169 137.997 272.144 149.093C269.486 153.291 267.954 158.135 267.547 163.624C267.452 164.916 267.524 166.261 267.763 167.659C268.952 174.59 272.503 181.29 277.828 185.839C281.322 188.829 286.058 190.935 290.579 191.971C295.852 193.178 300.853 192.885 305.584 191.094C309.837 189.48 313.887 187.412 316.955 184.108C323.071 177.519 326.142 169.314 324.966 160.489ZM229.272 203.223C229.63 203.456 229.884 203.661 230.035 203.839C232.481 206.732 234.992 209.481 237.569 212.086C247.615 222.239 259.991 229.225 273.206 234.508C274.113 234.87 274.994 235.177 275.851 235.429C275.999 235.473 276.128 235.564 276.219 235.688C276.311 235.812 276.359 235.962 276.356 236.115C276.301 239.038 276.283 242.28 276.302 245.843C276.304 246.398 276.189 246.763 275.955 246.939C275.315 247.415 274.714 247.849 274.15 248.241C264.428 254.97 255.914 260.872 248.607 265.949C246.926 267.118 245.307 268.148 243.749 269.04C243.679 269.079 243.619 269.134 243.571 269.199C243.524 269.264 243.491 269.338 243.475 269.417C243.458 269.495 243.458 269.576 243.476 269.655C243.493 269.733 243.526 269.807 243.574 269.872C244.741 271.435 245.666 273.163 246.718 274.688C252.526 283.126 258.093 291.385 263.898 300.083C264.232 300.585 264.722 300.862 265.366 300.912C266.43 300.999 267.464 301.05 268.469 301.065C279.958 301.241 290.903 301.161 301.305 300.827C301.333 300.826 301.361 300.818 301.386 300.805C301.411 300.791 301.433 300.771 301.449 300.748C301.465 300.724 301.475 300.697 301.479 300.669C301.483 300.641 301.48 300.612 301.47 300.585C301.289 300.058 301.101 299.521 300.815 299.048C298.077 294.57 295.477 290.594 293.014 287.119C290.873 284.099 288.792 281.011 286.77 277.855C286.722 277.779 286.691 277.694 286.679 277.605C286.667 277.516 286.675 277.425 286.701 277.339C286.728 277.254 286.773 277.175 286.833 277.108C286.893 277.041 286.967 276.988 287.05 276.953C288.878 276.178 290.455 275.352 291.73 273.779C292.038 273.398 292.658 273.027 293.027 273.589C294.095 275.211 295.099 276.707 296.04 278.078C301.635 286.225 306.713 293.717 311.274 300.553C311.484 300.871 311.824 300.979 312.18 300.992C324.333 301.348 336.671 301.144 348.522 300.916C348.575 300.914 348.627 300.903 348.676 300.88C348.724 300.858 348.767 300.826 348.802 300.787C348.838 300.747 348.865 300.701 348.882 300.65C348.898 300.6 348.905 300.546 348.901 300.493C348.886 300.315 348.825 300.142 348.719 299.972C347.997 298.801 347.239 297.629 346.446 296.455C340.57 287.751 334.971 279.526 329.652 271.781C326.7 267.484 323.704 263.114 320.665 258.671C320.042 257.758 319.449 256.792 318.888 255.773C318.494 255.057 318.252 254.426 318.163 253.88C317.976 252.713 317.884 251.239 317.886 249.458C317.897 241.808 317.886 234.21 317.855 226.664C317.823 219.104 317.61 211.378 317.562 204.29C317.561 204.204 317.542 204.118 317.505 204.04C317.469 203.962 317.416 203.892 317.35 203.835C317.285 203.779 317.208 203.737 317.125 203.712C317.042 203.688 316.955 203.681 316.869 203.693C312.955 204.237 308.934 204.604 304.808 204.792C300.516 204.987 296.09 204.561 291.529 203.515C284.947 202.001 278.634 199.497 272.592 196.005C271.314 195.266 270.056 194.425 268.819 193.483C262.706 188.828 257.603 183.214 253.509 176.643C252.572 175.139 251.065 172.409 248.988 168.453C248.857 168.203 248.555 167.791 248.082 167.217C247.901 166.756 247.723 166.486 247.179 166.483C246.026 166.475 244.856 166.463 243.67 166.448C235.652 166.344 227.573 166.291 219.433 166.289C216.678 166.289 213.892 166.343 211.075 166.451C210.956 166.456 210.841 166.496 210.744 166.566C210.647 166.636 210.573 166.733 210.532 166.845C210.049 168.135 209.559 169.434 208.926 170.667C206.845 174.721 204.699 178.231 202.489 181.198C197.81 187.475 191.493 193.019 184.397 196.93C182.159 198.162 180.093 199.18 178.198 199.982C172.143 202.551 165.197 204.164 157.36 204.821C155.268 204.996 153.249 204.981 151.301 204.773C148.406 204.466 145.465 204.05 142.479 203.525C141.975 203.436 141.718 203.646 141.71 204.157C141.614 208.992 141.564 213.875 141.408 218.878C141.071 229.895 141.131 241.166 141.141 251.92C141.141 253.144 141.027 253.965 140.801 254.382C139.218 257.277 137.464 260.12 135.539 262.912C131.786 268.359 128.113 273.787 124.521 279.196C123.273 281.072 122.083 282.823 120.951 284.447C117.486 289.419 113.767 294.546 110.848 299.635C110.704 299.887 110.574 300.15 110.457 300.423C110.436 300.474 110.427 300.529 110.431 300.584C110.435 300.639 110.453 300.692 110.482 300.739C110.512 300.786 110.552 300.825 110.6 300.853C110.647 300.881 110.701 300.897 110.756 300.9C113.681 301.033 116.738 301.1 119.927 301.1C128.337 301.1 136.787 301.097 145.277 301.09C145.768 301.088 146.263 301.082 146.761 301.071C146.934 301.069 147.103 301.017 147.249 300.924C147.395 300.83 147.512 300.697 147.588 300.541C147.882 299.937 148.195 299.398 148.526 298.924C152.557 293.134 156.614 287.184 160.698 281.077C162.201 278.827 163.882 276.252 165.743 273.351C165.769 273.311 165.802 273.278 165.841 273.253C165.881 273.227 165.925 273.211 165.971 273.204C166.018 273.197 166.065 273.2 166.11 273.213C166.155 273.225 166.197 273.247 166.233 273.277C168.057 274.831 169.828 276.216 172.111 277.023C172.173 277.045 172.229 277.081 172.276 277.127C172.323 277.173 172.359 277.229 172.382 277.29C172.405 277.352 172.414 277.417 172.409 277.483C172.404 277.548 172.385 277.611 172.352 277.668C170.837 280.343 169.391 282.666 168.016 284.638C165.038 288.901 162.118 293.208 159.255 297.558C158.693 298.409 158.131 299.371 157.57 300.442C157.551 300.479 157.541 300.52 157.542 300.562C157.542 300.603 157.554 300.644 157.574 300.68C157.595 300.716 157.624 300.746 157.659 300.768C157.695 300.79 157.735 300.802 157.776 300.804C161.114 300.967 164.38 301.051 167.574 301.055C175.746 301.064 183.945 301.063 192.17 301.052C192.882 301.052 193.56 300.988 194.205 300.858C194.311 300.837 194.396 300.784 194.462 300.7C194.807 300.257 195.156 299.779 195.508 299.267C201.624 290.382 207.298 282.041 212.528 274.243C213.552 272.718 214.484 271.401 215.326 270.291C215.39 270.207 215.435 270.109 215.458 270.006C215.481 269.902 215.481 269.795 215.459 269.691C215.436 269.587 215.392 269.489 215.328 269.403C215.265 269.318 215.184 269.247 215.09 269.195C214.378 268.805 213.619 268.395 212.954 267.915C205.876 262.8 198.668 257.814 191.331 252.956C188.695 251.211 186.241 249.289 183.692 247.53C182.528 246.723 182.681 245.805 182.639 244.569C182.542 241.729 182.544 238.903 182.646 236.093C182.656 235.799 182.801 235.607 183.081 235.518C187.481 234.11 191.562 232.441 195.324 230.511C197.784 229.249 199.984 228.076 201.923 226.992C206.685 224.327 211.375 221.086 215.993 217.267C220.368 213.65 224.298 209.604 227.784 205.129C227.841 205.055 228.106 204.752 228.579 204.22C228.859 203.905 229.09 203.572 229.272 203.223Z" fill="#00FF87"/>
<path d="M114.523 325.066C116.373 327.353 118.354 329.519 120.366 331.696C124.136 335.775 128.157 339.589 132.427 343.138C136.922 346.874 141.808 350.706 146.892 353.946C158.035 361.049 169.346 366.497 180.824 370.29C187.104 372.366 194.664 374.297 203.506 376.085C206.574 376.708 209.55 377.384 212.503 378.048C212.882 378.133 213.074 378.37 213.078 378.76C213.167 386.691 213.252 394.982 213.333 403.631C213.343 404.783 213.411 405.902 213.536 406.989C213.541 407.029 213.536 407.069 213.524 407.108C213.512 407.146 213.491 407.181 213.464 407.211C213.437 407.241 213.404 407.264 213.367 407.28C213.33 407.296 213.29 407.304 213.25 407.303C212.828 407.291 212.4 407.252 211.966 407.189C207.5 406.526 202.865 405.769 198.061 404.918C190.902 403.65 184.032 401.858 175.957 399.463C171.191 398.048 166.031 396.207 160.479 393.939C158.368 393.077 156.297 392.164 154.267 391.2C143.424 386.06 133.323 380.195 123.962 373.604C121.927 372.172 119.852 370.552 117.737 368.743C110.228 362.329 102.335 355.499 96.2058 348.447C94.0378 345.954 91.5433 342.99 88.7225 339.555C87.3301 337.856 86.0447 336.182 84.8664 334.532C81.3652 329.625 78.2424 324.923 75.4979 320.424C69.5701 310.697 64.4106 299.843 60.0194 287.862C59.2776 285.833 58.5994 283.803 57.9848 281.772C55.8422 274.671 54.1817 267.903 53.0033 261.469C52.2107 257.14 51.5145 252.335 50.9147 247.053C48.8007 228.396 49.9897 209.198 53.9507 190.462C55.0506 185.26 56.3593 180.27 57.8767 175.493C61.683 163.524 66.4335 152.252 72.1281 141.676C73.0861 139.894 74.1002 138.126 75.1704 136.37C76.5692 134.077 77.9362 131.754 79.4271 129.559C82.445 125.116 85.3729 121.067 88.2107 117.411C91.1311 113.652 94.9321 109.233 99.6137 104.154C101.11 102.53 102.643 100.968 104.214 99.4686C110.239 93.708 116.006 88.7776 121.514 84.6775C129.781 78.5229 138.549 73.0112 147.817 68.1422C154.666 64.544 162.399 61.2317 171.014 58.2052C177.516 55.9222 183.903 54.0934 190.174 52.7189C197.557 51.1009 204.909 49.9011 212.229 49.1196C212.292 49.1126 212.355 49.1184 212.415 49.1366C212.475 49.1548 212.531 49.185 212.578 49.2254C212.626 49.2659 212.666 49.3157 212.694 49.3718C212.722 49.4279 212.738 49.4891 212.741 49.5516C212.76 49.8566 212.774 50.1521 212.783 50.438C213.052 58.075 213.205 66.1737 213.244 74.7341C213.248 75.7253 213.285 76.816 213.355 78.0062C213.36 78.0895 213.333 78.1717 213.28 78.2361C213.226 78.3004 213.149 78.3421 213.066 78.3525C208.097 78.937 203.296 79.7916 198.073 80.8558C188.172 82.8762 178.062 86.1727 167.743 90.7451C161.946 93.3141 157.078 95.8058 153.138 98.2201C149.489 100.453 145.852 102.699 142.381 105.241C137.758 108.627 133.349 111.826 129.01 115.74C124.283 119.994 119.651 124.556 115.509 129.429C108.572 137.585 102.667 146.079 97.7921 154.91C95.3062 159.415 92.7725 164.263 90.7888 169.177C85.872 181.353 82.4313 193.893 80.4666 206.797C79.4557 213.43 78.9386 220.203 78.9153 227.115C78.8623 243.451 81.326 259.34 86.3064 274.783C86.9867 276.893 87.6978 278.887 88.4396 280.765C91.1692 287.684 93.8184 293.572 96.387 298.428C98.4936 302.408 101.19 306.888 104.478 311.869C106.115 314.347 108.063 316.847 109.914 319.357C111.3 321.241 112.978 323.153 114.523 325.066Z" fill="white"/>
<path d="M246.938 49.18C249.296 49.523 251.534 49.9011 253.757 50.2124C256.819 50.6445 259.907 51.1061 263.02 51.5975C263.931 51.7415 264.826 51.9131 265.703 52.1121C266.889 52.379 268.084 52.5061 269.264 52.7507C275.399 54.0108 281.267 55.6034 286.866 57.5286C292.613 59.5045 298.431 61.7632 303.959 64.4032C316.756 70.5195 328.566 77.6949 339.389 85.9291C340.542 86.808 341.636 87.6806 342.67 88.5468C344.053 89.7063 345.505 90.761 346.818 91.946C350.884 95.6184 355.208 99.5766 359.21 103.554C361.839 106.165 364.312 109.107 366.843 111.915C368.028 113.228 369.182 114.625 370.305 116.106C371.761 118.027 373.347 119.918 374.752 121.871C378.484 127.069 381.298 131.258 383.192 134.439C385.523 138.346 387.853 142.174 389.897 146.171C393.885 153.981 397.229 161.993 399.927 170.206C401.36 174.574 402.781 179.13 403.84 183.533C405.349 189.802 406.517 195.933 407.343 201.927C407.809 205.319 408.221 208.733 408.577 212.169C409.831 224.31 409.755 236.253 408.348 247.997C407.791 252.66 407.162 257.082 406.269 261.587C405.203 266.964 403.958 272.177 402.533 277.226C401.819 279.759 400.851 282.794 399.628 286.331C396.455 295.501 392.94 303.64 389.083 310.748C386.319 315.843 383.564 320.569 380.818 324.926C379.546 326.942 377.607 329.777 375 333.43C366.856 344.851 357.493 355.312 346.605 364.318C338.969 370.637 331.14 376.444 322.909 381.482C303.176 393.563 281.824 401.476 258.853 405.222C255.106 405.832 251.318 406.412 247.491 406.96C247.109 407.015 246.719 407.031 246.321 407.008C246.166 406.999 246.092 406.917 246.098 406.76C246.276 402.818 246.162 398.634 246.21 395.009C246.275 389.532 246.293 384.028 246.264 378.496C246.263 378.373 246.305 378.254 246.384 378.16C246.462 378.066 246.572 378.003 246.693 377.981C254.202 376.698 261.465 375.181 268.482 373.429C274.736 371.87 280.888 369.888 286.939 367.482C295.355 364.138 303.55 359.871 311.525 354.68C317.247 350.954 321.998 347.464 325.777 344.209C331.745 339.071 337.115 333.853 341.888 328.554C345.429 324.621 349.171 320.113 352.388 315.592C356.764 309.442 360.705 303.049 364.211 296.414C366.338 292.388 368.237 288.212 369.907 283.885C373.12 275.57 375.672 266.961 377.562 258.057C379.69 248.048 380.632 237.836 380.389 227.42C380.325 224.667 380.265 221.98 380.207 219.358C380.167 217.526 379.677 213.186 378.739 206.339C377.308 195.9 374.848 185.816 371.357 176.087C369.053 169.663 366.516 163.841 363.746 158.621C360.551 152.595 356.812 146.551 352.531 140.487C351.09 138.444 349.744 136.642 348.494 135.084C339.982 124.454 330.705 115.344 320.662 107.754C313.577 102.398 305.532 97.4641 296.527 92.953C294.543 91.9597 292.606 91.0586 290.716 90.2496C276.482 84.1692 261.721 80.0722 246.432 77.9585C246.344 77.9463 246.263 77.9022 246.205 77.8344C246.146 77.7667 246.114 77.6799 246.114 77.59C246.112 73.4517 246.145 69.2171 246.213 64.886C246.292 59.7968 246.2 54.6599 246.413 49.6152C246.416 49.5508 246.432 49.4878 246.461 49.4301C246.49 49.3725 246.53 49.3215 246.579 49.2805C246.629 49.2394 246.686 49.2093 246.748 49.192C246.81 49.1747 246.874 49.1706 246.938 49.18Z" fill="#212121"/>
<path d="M159.321 192.552C154.979 191.898 150.808 190.182 146.822 187.831C144.872 186.681 143.24 185.442 141.926 184.114C139.877 182.039 138.21 179.669 136.925 177.005C136.163 175.425 135.517 173.823 134.989 172.198C133.937 168.952 133.788 165.806 133.988 162.322C134.293 157.012 136.112 151.987 139.443 147.248C142.442 142.98 146.198 139.813 150.71 137.746C155.027 135.767 159.385 135.087 164.017 135.268C170.171 135.506 176.316 138.286 181.187 142.123C186.445 146.266 189.455 152.508 190.771 159.151C191.473 162.686 191.52 165.978 190.914 169.028C188.877 179.286 182.547 186.519 173.096 190.684C168.65 192.643 164.058 193.266 159.321 192.552Z" fill="white"/>
<path d="M324.966 160.489C326.142 169.314 323.071 177.519 316.955 184.108C313.887 187.412 309.837 189.48 305.584 191.094C300.853 192.885 295.852 193.178 290.579 191.971C286.058 190.935 281.322 188.829 277.828 185.839C272.503 181.29 268.952 174.59 267.763 167.659C267.524 166.261 267.452 164.916 267.547 163.624C267.954 158.135 269.486 153.291 272.144 149.093C279.169 137.997 292.264 132.73 304.83 136.675C315.858 140.135 323.45 149.135 324.966 160.489Z" fill="#212112"/>
<path d="M248.082 167.217C246.489 169.803 245.698 171.817 244.585 174.886C242.427 180.823 239.636 186.592 236.603 192.133C234.462 196.044 232.019 199.741 229.272 203.223C229.09 203.572 228.859 203.905 228.579 204.22C228.106 204.752 227.842 205.055 227.784 205.129C224.298 209.604 220.368 213.65 215.993 217.267C211.375 221.086 206.685 224.327 201.923 226.992C199.984 228.076 197.784 229.249 195.324 230.511C191.562 232.441 187.481 234.11 183.081 235.518C182.802 235.607 182.656 235.799 182.646 236.093C182.544 238.903 182.542 241.729 182.639 244.569C182.681 245.804 182.528 246.723 183.692 247.529C186.241 249.289 188.695 251.211 191.331 252.955C198.668 257.814 205.876 262.8 212.954 267.915C213.619 268.395 214.378 268.804 215.091 269.195C215.184 269.247 215.265 269.318 215.329 269.403C215.392 269.489 215.436 269.587 215.459 269.691C215.481 269.795 215.481 269.902 215.458 270.006C215.435 270.109 215.39 270.207 215.326 270.291C214.484 271.401 213.552 272.718 212.528 274.243C207.298 282.041 201.624 290.382 195.508 299.267C195.156 299.779 194.808 300.257 194.462 300.7C194.396 300.784 194.311 300.837 194.205 300.858C193.56 300.988 192.882 301.052 192.17 301.052C183.945 301.063 175.746 301.064 167.574 301.055C164.38 301.051 161.114 300.967 157.777 300.804C157.735 300.802 157.695 300.79 157.66 300.768C157.624 300.746 157.595 300.716 157.574 300.68C157.554 300.644 157.543 300.603 157.542 300.561C157.541 300.52 157.551 300.479 157.57 300.442C158.132 299.371 158.693 298.409 159.255 297.558C162.118 293.208 165.038 288.901 168.016 284.638C169.392 282.666 170.837 280.343 172.352 277.668C172.385 277.611 172.404 277.548 172.409 277.482C172.415 277.417 172.405 277.352 172.382 277.29C172.359 277.229 172.323 277.173 172.276 277.127C172.229 277.081 172.173 277.045 172.111 277.023C169.828 276.216 168.057 274.831 166.233 273.277C166.197 273.247 166.155 273.225 166.11 273.213C166.065 273.2 166.018 273.197 165.971 273.204C165.925 273.211 165.881 273.227 165.842 273.253C165.802 273.278 165.769 273.311 165.743 273.35C163.882 276.252 162.201 278.827 160.698 281.076C156.614 287.184 152.557 293.133 148.526 298.924C148.195 299.398 147.882 299.937 147.588 300.541C147.512 300.697 147.395 300.83 147.249 300.924C147.103 301.017 146.934 301.068 146.761 301.071C146.263 301.082 145.768 301.088 145.277 301.09C136.787 301.097 128.337 301.1 119.927 301.1C116.738 301.1 113.681 301.033 110.756 300.9C110.701 300.897 110.647 300.881 110.6 300.853C110.552 300.825 110.512 300.786 110.482 300.739C110.453 300.692 110.436 300.639 110.431 300.584C110.427 300.529 110.436 300.474 110.457 300.423C110.574 300.15 110.704 299.887 110.848 299.635C113.767 294.546 117.486 289.419 120.951 284.447C122.083 282.823 123.273 281.072 124.521 279.196C128.113 273.787 131.786 268.359 135.54 262.912C137.464 260.12 139.218 257.277 140.801 254.382C141.028 253.965 141.141 253.144 141.141 251.92C141.131 241.166 141.071 229.895 141.408 218.878C141.564 213.875 141.615 208.992 141.71 204.157C141.718 203.646 141.975 203.436 142.479 203.525C145.465 204.05 148.406 204.466 151.301 204.773C153.249 204.981 155.268 204.996 157.36 204.821C165.197 204.164 172.143 202.551 178.198 199.982C180.093 199.18 182.159 198.162 184.397 196.93C191.493 193.019 197.81 187.475 202.489 181.198C204.7 178.231 206.845 174.721 208.927 170.667C209.559 169.434 210.049 168.135 210.532 166.845C210.573 166.733 210.647 166.636 210.744 166.566C210.841 166.496 210.956 166.456 211.076 166.451C213.892 166.343 216.678 166.289 219.433 166.289C227.573 166.291 235.652 166.344 243.67 166.448C244.857 166.463 246.026 166.475 247.179 166.483C247.723 166.486 247.901 166.756 248.082 167.217Z" fill="white"/>
<path d="M248.082 167.217C248.555 167.791 248.857 168.203 248.988 168.453C251.065 172.409 252.572 175.139 253.509 176.643C257.603 183.214 262.706 188.828 268.819 193.483C270.056 194.425 271.314 195.266 272.592 196.005C278.634 199.498 284.947 202.001 291.529 203.515C296.09 204.561 300.516 204.987 304.808 204.792C308.934 204.604 312.955 204.237 316.869 203.693C316.955 203.681 317.042 203.688 317.125 203.712C317.208 203.737 317.285 203.779 317.35 203.835C317.416 203.892 317.469 203.962 317.505 204.04C317.542 204.118 317.561 204.204 317.562 204.29C317.61 211.378 317.823 219.104 317.855 226.664C317.886 234.21 317.897 241.808 317.886 249.458C317.884 251.239 317.976 252.713 318.163 253.88C318.252 254.426 318.494 255.058 318.888 255.773C319.449 256.792 320.042 257.758 320.665 258.671C323.704 263.114 326.7 267.484 329.652 271.781C334.971 279.526 340.57 287.751 346.446 296.455C347.239 297.629 347.997 298.801 348.719 299.972C348.825 300.142 348.886 300.315 348.901 300.493C348.905 300.546 348.898 300.6 348.882 300.65C348.865 300.701 348.838 300.747 348.802 300.787C348.767 300.826 348.724 300.858 348.675 300.88C348.627 300.903 348.575 300.915 348.522 300.916C336.671 301.144 324.333 301.348 312.18 300.992C311.824 300.979 311.484 300.871 311.274 300.554C306.713 293.717 301.635 286.225 296.04 278.078C295.099 276.707 294.095 275.211 293.027 273.589C292.658 273.027 292.038 273.398 291.73 273.779C290.455 275.352 288.878 276.178 287.05 276.953C286.967 276.988 286.893 277.041 286.833 277.108C286.773 277.175 286.728 277.254 286.701 277.34C286.675 277.425 286.667 277.516 286.679 277.605C286.691 277.694 286.722 277.779 286.77 277.855C288.792 281.011 290.873 284.099 293.014 287.119C295.477 290.594 298.077 294.571 300.815 299.048C301.101 299.521 301.289 300.058 301.47 300.585C301.48 300.612 301.483 300.641 301.479 300.669C301.475 300.697 301.465 300.724 301.449 300.748C301.433 300.771 301.411 300.791 301.386 300.805C301.361 300.818 301.333 300.826 301.305 300.827C290.903 301.161 279.958 301.241 268.469 301.065C267.464 301.05 266.43 300.999 265.366 300.912C264.722 300.862 264.232 300.585 263.898 300.083C258.093 291.385 252.526 283.126 246.718 274.688C245.666 273.163 244.741 271.435 243.574 269.872C243.526 269.807 243.493 269.733 243.476 269.655C243.458 269.576 243.458 269.495 243.475 269.417C243.491 269.338 243.524 269.264 243.571 269.199C243.619 269.134 243.679 269.08 243.749 269.04C245.307 268.148 246.926 267.118 248.607 265.949C255.914 260.872 264.428 254.97 274.15 248.241C274.714 247.849 275.315 247.415 275.955 246.939C276.189 246.763 276.304 246.398 276.302 245.843C276.283 242.28 276.301 239.038 276.356 236.115C276.359 235.962 276.311 235.812 276.219 235.688C276.128 235.564 275.999 235.473 275.851 235.429C274.994 235.177 274.113 234.87 273.206 234.508C259.991 229.225 247.615 222.239 237.569 212.086C234.992 209.481 232.481 206.732 230.035 203.839C229.884 203.661 229.63 203.456 229.272 203.223C232.019 199.741 234.462 196.044 236.603 192.133C239.635 186.592 242.427 180.823 244.585 174.886C245.698 171.817 246.489 169.803 248.082 167.217Z" fill="#212121"/>
</g>
<defs>
<clipPath id="clip0_702_21">
<rect width="460" height="460" fill="white"/>
</clipPath>
</defs>
</svg>
